<?xml version="1.0" standalone="no"?>
<!DOCTYPE svg PUBLIC "-//W3C//DTD SVG 20010904//EN"
 "http://www.w3.org/TR/2001/REC-SVG-20010904/DTD/svg10.dtd">
<svg version="1.0" xmlns="http://www.w3.org/2000/svg"
 width="1500.000000pt" height="1500.000000pt" viewBox="0 0 1500.000000 1500.000000"
 preserveAspectRatio="xMidYMid meet">
<metadata>
Created by potrace 1.11, written by Peter Selinger 2001-2013
</metadata>
<g transform="translate(0.000000,1500.000000) scale(0.100000,-0.100000)"
fill="#000000" stroke="none">
<path d="M6735 13680 c-761 -78 -1435 -523 -1767 -1167 -32 -62 -58 -125 -58
-139 l0 -27 -82 5 c-117 8 -325 -8 -442 -32 -763 -157 -1330 -780 -1415 -1552
-37 -330 28 -692 175 -979 l38 -74 0 -1095 c1 -1012 2 -1101 19 -1177 79 -365
282 -669 575 -862 l71 -46 4 -1435 c4 -1578 0 -1477 66 -1741 112 -443 373
-854 736 -1157 339 -283 782 -464 1230 -502 90 -8 552 -10 1490 -8 1513 4
1422 0 1705 74 770 201 1382 812 1580 1578 54 205 79 430 80 698 l0 97 508 4
c471 3 513 5 597 25 363 84 636 237 878 492 254 267 408 603 447 977 7 66 10
708 8 1948 -4 1844 -4 1850 -25 1935 -69 278 -177 474 -363 661 -196 196 -400
308 -682 371 -88 20 -127 22 -730 25 l-638 4 -1 197 c-3 552 -8 648 -41 801
-112 524 -511 969 -1023 1140 -178 59 -279 74 -500 75 -192 0 -241 -5 -350
-38 -16 -5 -28 6 -62 51 -75 106 -193 232 -306 329 -328 283 -735 467 -1168
529 -136 20 -428 27 -554 15z m504 -904 c191 -40 414 -139 561 -250 168 -126
285 -270 394 -482 67 -132 129 -198 233 -247 64 -30 74 -32 183 -32 l115 0
120 57 c163 78 221 91 365 86 159 -7 268 -47 385 -142 109 -88 179 -189 222
-321 36 -112 38 -275 5 -385 -36 -115 -85 -195 -176 -285 -132 -131 -284 -195
-466 -195 -189 0 -325 60 -490 216 -119 112 -176 145 -284 165 -53 10 -83 10
-138 1 -116 -20 -167 -51 -314 -192 -227 -219 -420 -323 -715 -387 -120 -26
-449 -25 -569 1 -130 28 -272 81 -412 154 l-128 66 -99 4 c-83 4 -110 1 -165
-18 -128 -42 -239 -154 -282 -282 -26 -80 -86 -196 -137 -263 -62 -83 -136
-150 -242 -222 -141 -94 -198 -166 -230 -290 -13 -49 -15 -192 -15 -970 0
-638 -3 -928 -11 -965 -38 -177 -193 -323 -369 -347 -211 -28 -407 88 -487
289 -17 42 -18 124 -23 1220 -6 1326 4 1186 -93 1357 -102 180 -134 311 -124
511 6 137 30 230 88 347 143 285 421 469 743 491 110 8 204 -5 344 -47 91 -28
115 -31 195 -27 77 3 103 9 160 35 137 65 222 178 258 345 55 256 147 434 316
609 212 220 469 353 780 404 111 18 395 13 502 -9z m1226 -2908 c136 -70 281
-121 428 -150 157 -31 414 -31 572 0 111 22 283 75 342 106 18 9 35 16 38 16
3 0 4 -1374 2 -3052 l-3 -3053 -21 -90 c-65 -271 -170 -468 -349 -655 -184
-191 -402 -315 -674 -383 -84 -21 -98 -21 -1460 -24 -1183 -3 -1388 -2 -1470
11 -501 79 -905 420 -1065 899 -67 200 -65 153 -65 1588 l0 1296 61 12 c151
30 347 118 492 222 273 194 466 501 534 846 15 77 18 189 23 914 l5 826 77 67
c100 87 224 234 274 324 1 1 48 -11 105 -27 235 -67 371 -85 644 -86 259 0
368 13 592 70 243 63 492 175 698 315 55 37 102 67 105 66 3 0 55 -26 115 -58z
m3558 -215 c126 -60 204 -145 246 -271 l21 -62 -2 -1833 c-3 -2046 3 -1864
-73 -2023 -75 -155 -202 -282 -360 -359 -157 -77 -162 -78 -667 -82 l-448 -4
0 2336 0 2336 608 -3 607 -3 68 -32z"/>
<path d="M8180 8786 c-129 -36 -230 -121 -288 -243 l-37 -78 -3 -2300 c-2
-1543 1 -2316 8 -2348 34 -159 172 -300 331 -336 106 -25 235 -4 331 52 103
60 187 189 207 317 15 89 15 4479 1 4570 -21 133 -104 255 -220 323 -90 53
-230 71 -330 43z"/>
<path d="M6223 6350 c-115 -17 -252 -109 -310 -208 -14 -23 -34 -70 -44 -103
-18 -58 -19 -110 -19 -1122 0 -679 4 -1078 11 -1106 36 -157 173 -294 330
-330 106 -25 235 -4 331 52 103 60 187 189 207 317 14 84 14 2028 1 2121 -36
248 -261 416 -507 379z"/>
</g>
</svg>
