<svg xmlns="http://www.w3.org/2000/svg" viewBox="0 0 100 100"><path d="M92.2 51.4H88v-.3c0-1.8-.3-3.5-1-5.1-.6-1.4-1.2-2.8-1.9-4.2-1.7-3.7-3.3-7.1-3.5-11L80.5 10c.4 0 .7-.2 1-.5.3-.3.4-.8.4-1.2l-.7-5.2c-.1-.7-.7-1.3-1.5-1.3h-9.8c-.7 0-1.4.6-1.5 1.3l-.7 5.2c-.1.4.1.9.4 1.2.2.3.5.4.8.5l-1.1 20.8c-.2 3.8-1.8 7.3-3.5 11-.4 1-.9 2-1.3 3-.4-1-.9-2-1.3-3-1.7-3.7-3.3-7.1-3.5-11L57 10.1c.4 0 .7-.2 1-.5.3-.3.4-.8.4-1.2l-.7-5.2c-.1-.7-.7-1.3-1.5-1.3h-9.8c-.7 0-1.4.6-1.5 1.3l-.7 5.2c-.1.4.1.9.4 1.2.2.3.5.4.8.5l-1.1 20.8c-.2 3.8-1.8 7.3-3.5 11-.4 1-.9 2-1.3 3-.4-1-.9-2-1.3-3-1.7-3.7-3.3-7.1-3.5-11l-1.1-20.8c.4 0 .7-.2 1-.5.3-.3.4-.8.4-1.2l-1-5.2c-.1-.7-.7-1.3-1.5-1.3h-9.8c-.7 0-1.4.6-1.5 1.3l-.7 5.2c-.1.4.1.9.4 1.2.2.3.5.4.8.5l-1.1 20.8c-.2 3.8-1.8 7.3-3.5 11-.6 1.4-1.3 2.8-1.9 4.2-.7 1.6-1 3.3-1 5.1v.3H10c-.8 0-1.5.7-1.5 1.5v43.6c0 .8.7 1.5 1.5 1.5h82.2c.8 0 1.5-.7 1.5-1.5V52.9c0-.8-.6-1.5-1.5-1.5zM71.9 9.1h5.6l.5 8.5h-6.5l.4-8.5zm6.5-4.2l.3 2.2h-7.8l.3-2.2h7.2zm-14 46.3c0-1.4.3-2.7.8-4 .5-1.4 1.2-2.7 1.8-4.1 1.7-3.8 3.5-7.6 3.8-12.1l.6-11.5H78l.6 11.5c.2 4.4 2 8.3 3.8 12.1.6 1.3 1.2 2.7 1.8 4.1.5 1.3.8 2.6.8 4v.3H64.4v-.3zM48.3 9.1h5.6l.5 8.5h-6.5l.4-8.5zm6.5-4.2l.3 2.2h-7.8l.3-2.2h7.2zm-14 46.3c0-1.4.3-2.7.8-4 .5-1.4 1.2-2.7 1.8-4.1 1.7-3.8 3.5-7.6 3.8-12.1l.6-11.5h6.7l.6 11.5c.2 4.4 2 8.3 3.8 12.1.6 1.3 1.2 2.7 1.8 4.1.5 1.3.8 2.6.8 4v.3H40.8v-.3zm-16-42.1h5.6l.5 8.5h-6.5l.4-8.5zm6.4-4.2l.3 2.2h-7.8l.3-2.2h7.2zM17.3 51.2c0-1.4.3-2.7.8-4 .5-1.4 1.2-2.7 1.8-4.1 1.7-3.8 3.5-7.6 3.8-12.1l.6-11.5H31l.6 11.5c.2 4.4 2 8.3 3.8 12.1.6 1.3 1.2 2.7 1.8 4.1.5 1.3.8 2.6.8 4v.3H17.3v-.3zm-5.8 43.9v-14h16c.6 0 1-.4 1-1s-.4-1-1-1h-16V63.7h12.7c.6 0 1-.4 1-1s-.4-1-1-1H11.5v-7.3H90.9v14.9h-5.4c-.6 0-1 .4-1 1s.4 1 1 1h5.4V79h-4.3c-.6 0-1 .4-1 1s.4 1 1 1h4.3v14H11.5z"/><path d="M90.3 62.7c0-.6-.4-1-1-1H76.1c-.6 0-1 .4-1 1s.4 1 1 1h13.3c.5 0 .9-.4.9-1zM58.4 61.7H33.5c-.6 0-1 .4-1 1s.4 1 1 1h24.9c.6 0 1-.4 1-1s-.4-1-1-1zM63.1 63.7H69c.6 0 1-.4 1-1s-.4-1-1-1h-5.9c-.6 0-1 .4-1 1s.5 1 1 1zM57.5 79.1H32.6c-.6 0-1 .4-1 1s.4 1 1 1h24.9c.6 0 1-.4 1-1s-.4-1-1-1zM68.1 79.1h-3c-.6 0-1 .4-1 1s.4 1 1 1h3c.6 0 1-.4 1-1s-.4-1-1-1zM21.4 69.3h-5c-.6 0-1 .4-1 1s.4 1 1 1h5c.6 0 1-.4 1-1s-.5-1-1-1zM57.5 69.3H39c-.6 0-1 .4-1 1s.4 1 1 1h18.5c.6 0 1-.4 1-1s-.4-1-1-1zM71.6 69.3h-3c-.6 0-1 .4-1 1s.4 1 1 1h3c.6 0 1-.4 1-1s-.5-1-1-1zM23 88.8h-6.6c-.6 0-1 .4-1 1s.4 1 1 1H23c.6 0 1-.4 1-1s-.5-1-1-1zM85.5 88.8h-6.9c-.6 0-1 .4-1 1s.4 1 1 1h6.9c.6 0 1-.4 1-1s-.4-1-1-1zM50.8 88.8H32.3c-.6 0-1 .4-1 1s.4 1 1 1h18.5c.6 0 1-.4 1-1s-.4-1-1-1zM64.9 88.8h-3c-.6 0-1 .4-1 1s.4 1 1 1h3c.6 0 1-.4 1-1s-.5-1-1-1z"/></svg>