<svg xmlns="http://www.w3.org/2000/svg" viewBox="0 0 100 100"><path d="M49.1 73.5c.3 0 .6 0 .9-.1.4-.1.7-.4.8-.8.1-.8.1-1.7-.2-2.5.1.2.4.4.7.5.3.1.6.1.9.1 1.3 0 2.5-.5 3.5-1.4 1.1-1.1 1.6-2.8 1.4-4.3-.1-.4-.4-.7-.8-.8-1.6-.3-3.2.2-4.3 1.4-1.1 1.1-1.6 2.7-1.4 4.3-.2-.6-.6-1.1-1-1.5-1.1-1.1-2.8-1.6-4.3-1.4-.4.1-.7.4-.8.8-.3 1.6.2 3.2 1.4 4.3.7.9 1.9 1.4 3.2 1.4zm4.1-6.6c.5-.5 1.1-.8 1.8-.8-.1.7-.4 1.3-.8 1.8-.5.5-1.1.8-1.8.8 0-.7.3-1.3.8-1.8zM48 69.7c.5.5.8 1.1.8 1.8-.7-.1-1.3-.4-1.8-.8-.5-.5-.8-1.1-.8-1.8.7 0 1.3.3 1.8.8z"/><path d="M49.1 79.7c.3 0 .6 0 .9-.1.4-.1.7-.4.8-.8.1-.8.1-1.7-.2-2.5.1.2.4.4.7.5.3.1.6.1.9.1 1.3 0 2.5-.5 3.5-1.4 1.1-1.1 1.6-2.8 1.4-4.3-.1-.4-.4-.7-.8-.8-1.6-.3-3.2.2-4.3 1.4-1.1 1.1-1.6 2.7-1.4 4.3-.2-.6-.6-1.1-1-1.5-1.1-1.1-2.8-1.6-4.3-1.4-.4.1-.7.4-.8.8-.3 1.6.2 3.2 1.4 4.3.7.9 1.9 1.4 3.2 1.4zm4.1-6.6c.5-.5 1.1-.8 1.8-.8-.1.7-.4 1.3-.8 1.8s-1.1.8-1.8.8c0-.7.3-1.3.8-1.8zM48 75.9c.5.5.8 1.1.8 1.8-.7-.1-1.3-.4-1.8-.8s-.8-1.1-.8-1.8c.7 0 1.3.3 1.8.8z"/><path d="M49.1 85.9c.3 0 .6 0 .9-.1.4-.1.7-.4.8-.8.1-.8.1-1.7-.2-2.5.1.2.4.4.7.5.3.1.6.1.9.1 1.3 0 2.5-.5 3.5-1.4 1.1-1.1 1.6-2.8 1.4-4.3-.1-.4-.4-.7-.8-.8-1.6-.3-3.2.2-4.3 1.4-1.1 1.1-1.6 2.7-1.4 4.3-.2-.6-.6-1.1-1-1.5-1.1-1.1-2.8-1.6-4.3-1.4-.4.1-.7.4-.8.8-.3 1.6.2 3.2 1.4 4.3.7.9 1.9 1.4 3.2 1.4zm4.1-6.6c.5-.5 1.1-.8 1.8-.8-.1.7-.4 1.3-.8 1.8s-1.2.7-1.8.8c0-.7.3-1.4.8-1.8zM48 82.1c.5.5.8 1.1.8 1.8-.7-.1-1.3-.4-1.8-.8s-.8-1.1-.8-1.8c.7 0 1.3.3 1.8.8zM50.3 66.4c.6 0 1-.4 1-1v-10c0-.6-.4-1-1-1s-1 .4-1 1v10c0 .5.4 1 1 1zM47.5 66.1c.6 0 1-.4 1-1v-5.3c0-.6-.4-1-1-1s-1 .4-1 1v5.3c0 .5.5 1 1 1zM53 63.4c.6 0 1-.4 1-1v-2.6c0-.6-.4-1-1-1s-1 .4-1 1v2.6c0 .5.5 1 1 1z"/><path d="M80.1 57.4l-4.4-1.2c0-1.4-.3-2.8-.8-4.1-.5-1.2-1-2.4-1.6-3.6-1.4-3.1-2.8-6-2.9-9.2L69.5 22c.3-.1.6-.2.8-.5.3-.3.4-.8.4-1.2l-.7-4.4c-.1-.7-.7-1.3-1.5-1.3h-8.3c-.7 0-1.4.6-1.5 1.3l-.6 4.4c-.1.4.1.9.4 1.2.2.2.4.3.6.4l-.9 17.4c-.2 3.2-1.3 5.7-2.7 8.5-.4.8-.7 1.6-1.1 2.4l-2.4-.6V3c0-.8-.7-1.5-1.5-1.5S49 2.2 49 3v46.6l-3.1.9c-.4-.9-.8-1.8-1.2-2.6-1.3-2.9-2.5-5.3-2.7-8.5L41.1 22c.3-.1.6-.2.8-.5.3-.3.4-.8.4-1.2l-.6-4.4c-.1-.7-.7-1.3-1.5-1.3h-8.3c-.7 0-1.4.6-1.5 1.3l-.6 4.4c-.1.4.1.9.4 1.2.2.2.4.3.6.4l-.9 17.4c-.2 3.2-1.5 6.1-2.9 9.2-.5 1.2-1.1 2.3-1.6 3.6-.5 1.4-.8 2.8-.8 4.3l-3.6 1c-.6.2-1.1.8-1.1 1.4v36.9c0 .8.7 1.5 1.5 1.5h58.4c.8 0 1.5-.7 1.5-1.5V58.9c-.1-.7-.5-1.3-1.2-1.5zM61.8 28l.4-6.9h4.3l.4 6.9h-5.1zm5.4-10.3l.2 1.5h-6.1l.2-1.5h5.7zm-9 31.5c1.4-3 2.7-5.9 2.9-9.6l.5-9.5h5.2l.5 9.5c.2 3.8 1.7 7.1 3.2 10.3.5 1.1 1.1 2.3 1.5 3.4.3.7.4 1.4.5 2.1l-15.3-4.2c.5-.7.7-1.4 1-2zM33.5 28l.4-6.9h4.3l.4 6.9h-5.1zm5.4-10.3l.2 1.5H33l.2-1.5h5.7zM28.1 53.3c.5-1.1 1-2.3 1.5-3.4 1.5-3.2 3-6.5 3.2-10.3l.5-9.5h5.2l.5 9.5c.2 3.8 1.5 6.6 2.9 9.6.3.7.6 1.4 1 2.1l-15.4 4.3c.1-.8.3-1.6.6-2.3zm-5.3 41v-33h10.4c.6 0 1-.4 1-1s-.4-1-1-1h-8l25.3-7 25.3 7H61.6c-.6 0-1 .4-1 1s.4 1 1 1h16.6v32.9H22.8z"/><path d="M62.9 68.1h11.2c.6 0 1-.4 1-1s-.4-1-1-1H62.9c-.6 0-1 .4-1 1s.4 1 1 1zM25.9 68.1h5c.6 0 1-.4 1-1s-.4-1-1-1h-5c-.6 0-1 .4-1 1s.4 1 1 1zM67.5 82.8c.6 0 1-.4 1-1s-.4-1-1-1h-4c.3-1.1.4-2.2.4-3.4 0-3.3-1.2-6.6-3.5-9.1-.4-.4-1-.4-1.4-.1-.4.4-.4 1-.1 1.4 1.9 2.1 3 4.9 3 7.7 0 6.4-5.2 11.6-11.6 11.6-6.4 0-11.6-5.2-11.6-11.6 0-2.8 1-5.6 3-7.7.4-.4.3-1-.1-1.4-.4-.4-1-.3-1.4.1-2.2 2.5-3.5 5.7-3.5 9.1 0 7.5 6.1 13.6 13.6 13.6 5.6 0 10.4-3.4 12.5-8.2h4.7zM30.1 80.8h-2.5c-.6 0-1 .4-1 1s.4 1 1 1h2.5c.6 0 1-.4 1-1s-.4-1-1-1zM76.6 72.6h-5.8c-.6 0-1 .4-1 1s.4 1 1 1h5.8c.6 0 1-.4 1-1s-.5-1-1-1zM29.5 73.6c0 .6.4 1 1 1H33c.6 0 1-.4 1-1s-.4-1-1-1h-2.5c-.5 0-1 .4-1 1zM70.9 89h-5.8c-.6 0-1 .4-1 1s.4 1 1 1h5.8c.6 0 1-.4 1-1s-.4-1-1-1zM27.3 89h-2.5c-.6 0-1 .4-1 1s.4 1 1 1h2.5c.6 0 1-.4 1-1s-.4-1-1-1zM39.8 89h-7.3c-.6 0-1 .4-1 1s.4 1 1 1h7.3c.6 0 1-.4 1-1s-.4-1-1-1z"/></svg>