<svg xmlns="http://www.w3.org/2000/svg" viewBox="0 0 100 100"><path d="M58.5 59.3c0-2.5 1.4-4.6 3-4.6s3 2.1 3 4.6c0 2.5-1.4 4.6-3 4.6s-3-2.1-3-4.6zm9.1-10.5c1.5 0 2.7-1.8 2.7-4.1s-1.2-4.1-2.7-4.1c-1.5 0-2.7 1.8-2.7 4.1 0 2.2 1.2 4.1 2.7 4.1zm10.9-19.9c1.3.4 2.1 1.6 2.1 2.9v36.5c0 1.3-.9 2.5-2.1 2.9l-27.6 8.3c-.3.1-.6.1-.9.1-.3 0-.6 0-.9-.1l-27.6-8.3c-1.3-.4-2.1-1.6-2.1-2.9V31.8c0-1.3.9-2.5 2.1-2.9l2.5-.8 14-4.2 5-1.5 6.2-1.9h.4c.4-.1.7-.1 1.1 0h.4l27.4 8.4zM30.8 61c0-2.2-1.2-4-2.7-4-1.5 0-2.7 1.8-2.7 4s1.2 4 2.7 4c1.5 0 2.7-1.8 2.7-4zm6.6-11.8c0-2.4-1.3-4.4-2.9-4.4s-2.9 2-2.9 4.4 1.3 4.4 2.9 4.4 2.9-2 2.9-4.4zm7.3-11.5c0-2.5-1.4-4.6-3-4.6-1.7 0-3 2.1-3 4.6 0 2.5 1.4 4.6 3 4.6s3-2 3-4.6zM74.6 34L53 27.5v44.9L74.6 66V34z"/></svg>