<svg xmlns="http://www.w3.org/2000/svg" viewBox="0 0 100.0 100"><path d="M38.75 75h37.5c2.5 0 3.75-1.25 3.75-3.75v-37.5c0-2.5-1.25-3.75-3.75-3.75h-37.5c-2.5 0-3.75 1.25-3.75 3.75v37.5c0 2.5 1.25 3.75 3.75 3.75zm7.5-7.5c-2.1 0-3.75-1.65-3.75-3.75S44.15 60 46.25 60 50 61.65 50 63.75s-1.65 3.75-3.75 3.75zM23.75 60h6.75V33.75c0-6.15 2.45-8.75 8.25-8.75H65v-6.25c0-2.5-1.25-3.75-3.75-3.75h-37.5c-2.5 0-3.75 1.25-3.75 3.75v37.5c0 2.5 1.25 3.75 3.75 3.75zm22.5-15c-2.1 0-3.75-1.65-3.75-3.75s1.65-3.75 3.75-3.75S50 39.15 50 41.25 48.35 45 46.25 45zM57.5 56.25c-2.1 0-3.75-1.65-3.75-3.75s1.65-3.75 3.75-3.75 3.75 1.65 3.75 3.75-1.65 3.75-3.75 3.75zM68.75 67.5c-2.1 0-3.75-1.65-3.75-3.75S66.65 60 68.75 60s3.75 1.65 3.75 3.75-1.65 3.75-3.75 3.75zm0-22.5c-2.1 0-3.75-1.65-3.75-3.75s1.65-3.75 3.75-3.75 3.75 1.65 3.75 3.75S70.85 45 68.75 45zm0 0"/></svg>