<svg width="100" height="100" xmlns="http://www.w3.org/2000/svg"><title>Layer 1</title><path d="M35.193 90.086h49.81c3.321 0 4.981-1.66 4.981-4.981v-49.81c0-3.32-1.66-4.981-4.98-4.981h-49.81c-3.322 0-4.982 1.66-4.982 4.98v49.81c0 3.322 1.66 4.982 4.981 4.982zm9.962-9.962c-2.79 0-4.98-2.192-4.98-4.981 0-2.79 2.19-4.981 4.98-4.981 2.79 0 4.981 2.192 4.981 4.98 0 2.79-2.191 4.982-4.98 4.982zM15.27 70.162h8.966V35.295c0-8.17 3.254-11.623 10.958-11.623H70.06v-8.301c0-3.321-1.66-4.981-4.98-4.981H15.27c-3.322 0-4.982 1.66-4.982 4.98v49.81c0 3.322 1.66 4.982 4.981 4.982zm29.886-19.924c-2.79 0-4.98-2.192-4.98-4.981 0-2.79 2.19-4.981 4.98-4.981 2.79 0 4.981 2.191 4.981 4.98 0 2.79-2.191 4.982-4.98 4.982zM60.098 65.18c-2.79 0-4.98-2.192-4.98-4.981 0-2.79 2.19-4.981 4.98-4.981 2.79 0 4.981 2.191 4.981 4.98 0 2.79-2.191 4.982-4.98 4.982zm14.943 14.943c-2.789 0-4.98-2.192-4.98-4.981 0-2.79 2.191-4.981 4.98-4.981 2.79 0 4.981 2.192 4.981 4.98 0 2.79-2.191 4.982-4.98 4.982zm0-29.886c-2.789 0-4.98-2.192-4.98-4.981 0-2.79 2.191-4.981 4.98-4.981 2.79 0 4.981 2.191 4.981 4.98 0 2.79-2.191 4.982-4.98 4.982zm0 0"/></svg>