<svg xmlns="http://www.w3.org/2000/svg" xmlns:xlink="http://www.w3.org/1999/xlink" version="1.1" x="0px" y="0px" viewBox="0 0 28 64" style="enable-background:new 0 0 28 64;" xml:space="preserve"><g><g><path d="M27,4h-3V1c0-0.553-0.447-1-1-1H5C4.447,0,4,0.447,4,1v3H1C0.447,4,0,4.447,0,5v38v6v15h2V51.414l4,4V64h2v-6.586    l5.293,5.293C13.488,62.902,13.744,63,14,63c0.256,0,0.512-0.098,0.707-0.293L20,57.414V64h2v-8.586l4-4V64h2V49v-6V5    C28,4.447,27.553,4,27,4z M6,2h16v2H6V2z M26,48.586l-4,4V43h-2v11.586l-6,6l-6-6V43H6v9.586l-4-4V43V6h3h18h3v37V48.586z"></path><path d="M14,25c-4.411,0-8,3.589-8,8s3.589,8,8,8c4.411,0,8-3.589,8-8S18.411,25,14,25z M14,27c3.222,0,5.852,2.555,5.987,5.744    c-0.224-0.13-0.43-0.298-0.671-0.504C18.672,31.688,17.869,31,16.332,31c-1.537,0-2.34,0.688-2.984,1.24    C12.813,32.698,12.461,33,11.664,33c-0.796,0-1.148-0.302-1.681-0.759c-0.435-0.373-0.948-0.803-1.705-1.047    C9.047,28.766,11.32,27,14,27z M14,39c-3.222,0-5.851-2.554-5.987-5.744c0.223,0.129,0.428,0.297,0.668,0.503    C9.325,34.312,10.128,35,11.664,35c1.537,0,2.34-0.688,2.984-1.24c0.534-0.458,0.887-0.76,1.684-0.76    c0.797,0,1.149,0.302,1.684,0.76c0.435,0.373,0.949,0.803,1.706,1.046C18.953,37.234,16.679,39,14,39z"></path></g></g></svg>