<svg xmlns="http://www.w3.org/2000/svg" viewBox="0 0 28 64"><path d="M27 4h-3V1a1 1 0 0 0-1-1H5a1 1 0 0 0-1 1v3H1a1 1 0 0 0-1 1v59h2V51.414l4 4V64h2v-6.586l5.293 5.293a.997.997 0 0 0 1.414 0L20 57.414V64h2v-8.586l4-4V64h2V5a1 1 0 0 0-1-1zM6 2h16v2H6V2zm20 46.586l-4 4V43h-2v11.586l-6 6-6-6V43H6v9.586l-4-4V6h24v42.586z"/><path d="M14 25c-4.411 0-8 3.589-8 8s3.589 8 8 8 8-3.589 8-8-3.589-8-8-8zm0 2c3.222 0 5.852 2.555 5.987 5.744a4.64 4.64 0 0 1-.671-.504c-.644-.552-1.447-1.24-2.984-1.24s-2.34.688-2.984 1.24c-.535.458-.887.76-1.684.76-.796 0-1.148-.302-1.681-.759-.435-.373-.948-.803-1.705-1.047A6.011 6.011 0 0 1 14 27zm0 12c-3.222 0-5.851-2.554-5.987-5.744.223.129.428.297.668.503.644.553 1.447 1.241 2.983 1.241 1.537 0 2.34-.688 2.984-1.24.534-.458.887-.76 1.684-.76.797 0 1.149.302 1.684.76.435.373.949.803 1.706 1.046A6.012 6.012 0 0 1 14 39z"/></svg>