<svg xmlns="http://www.w3.org/2000/svg" viewBox="0 0 100 100"><path d="M26.142 91.98A4.02 4.02 0 0 1 22.123 96a4.02 4.02 0 0 1-4.019-4.02V55.97l4.019 6.186v-1.869l4.019 6.618V91.98zM81.896 91.98A4.02 4.02 0 0 1 77.878 96a4.02 4.02 0 0 1-4.019-4.02V66.76l4.019-4.892 4.018-7.926V91.98z"/><path d="M50.105 4.001c7.579 0 15.158 1.065 15.158 3.197v3.928c9.11 1.176 15.913 3.495 15.913 6.958v33.874C81.176 61.014 50 88.73 50 88.73S18.824 61.014 18.824 51.958V18.084c0-3.49 6.909-5.817 16.123-6.984V7.198c0-2.132 7.579-3.197 15.158-3.197m0-2c-11.385 0-17.158 1.748-17.158 5.197v2.157c-10.701 1.571-16.123 4.505-16.123 8.73v33.874c0 1.6 0 6.469 16.15 23.172 7.757 8.023 15.619 15.025 15.697 15.096L50 91.406l1.329-1.181c.078-.07 7.939-7.072 15.696-15.096 16.15-16.703 16.15-21.572 16.15-23.172V18.084c0-4.196-5.352-7.12-15.913-8.7V7.198c.001-3.449-5.772-5.197-17.157-5.197z"/><g><path d="M22.375 34.005v15.894C22.375 57.923 50 82.483 50 82.483s27.625-24.561 27.625-32.585V34.67s-6.373-6.462-16.377-6.462-19.941 6.354-27.389 6.354-11.484-.557-11.484-.557zm11.601 19.742a4.017 4.017 0 1 1-.002-8.034 4.017 4.017 0 0 1 .002 8.034zm6.859-9.734a2.792 2.792 0 1 1 0-5.584 2.792 2.792 0 0 1 0 5.584z"/></g></svg>