<svg xmlns="http://www.w3.org/2000/svg" xmlns:xlink="http://www.w3.org/1999/xlink" version="1.1" x="0px" y="0px" viewBox="0 0 64 64" style="enable-background:new 0 0 64 64;" xml:space="preserve"><g><g><path d="M63.634,13.227c-0.232-0.19-0.536-0.267-0.83-0.207l-5,1c-0.028,0.005-0.049,0.022-0.076,0.03    C56.229,11.624,53.554,10,50.5,10h-37c-3.054,0-5.729,1.624-7.228,4.049c-0.027-0.008-0.048-0.024-0.076-0.03l-5-1    c-0.294-0.059-0.599,0.017-0.83,0.207C0.134,13.417,0,13.7,0,14v8c0,0.3,0.134,0.583,0.366,0.773C0.546,22.921,0.771,23,1,23    c0.065,0,0.131-0.006,0.196-0.02l4.596-0.919C7.143,24.972,10.086,27,13.5,27H21v10.182C21,39.838,23.162,42,25.818,42    c0.802,0,1.541,0.326,2.082,0.918c0.54,0.592,0.798,1.357,0.726,2.156L27,63v1h2l-0.004-0.909l1.622-17.836    c0.122-1.345-0.33-2.688-1.241-3.685C28.466,40.572,27.169,40,25.818,40C24.264,40,23,38.736,23,37.182V27h2v5    c0,1.654,1.346,3,3,3c1.654,0,3-1.346,3-3v-5h2v5c0,1.654,1.346,3,3,3c1.654,0,3-1.346,3-3v-5h2v10.182    C41,38.736,39.736,40,38.182,40c-1.35,0-2.647,0.572-3.558,1.569c-0.911,0.997-1.363,2.34-1.241,3.685L35,63v1h2l-0.004-1.091    l-1.622-17.835c-0.073-0.798,0.185-1.564,0.726-2.156C36.641,42.326,37.38,42,38.182,42C40.838,42,43,39.838,43,37.182V27h7.5    c3.414,0,6.357-2.028,7.708-4.939l4.596,0.919C62.869,22.994,62.935,23,63,23c0.229,0,0.454-0.079,0.634-0.227    C63.866,22.583,64,22.3,64,22v-8C64,13.7,63.866,13.417,63.634,13.227z M5,20.18l-3,0.6V15.22l3,0.6V20.18z M29,32    c0,0.551-0.449,1-1,1c-0.551,0-1-0.449-1-1v-5h2V32z M37,32c0,0.551-0.449,1-1,1c-0.551,0-1-0.449-1-1v-5h2V32z M50.5,25h-37    C9.916,25,7,22.084,7,18.5S9.916,12,13.5,12h37c3.584,0,6.5,2.916,6.5,6.5S54.084,25,50.5,25z M62,20.78l-3-0.6v-4.36l3-0.6V20.78    z"></path><path d="M19,6c0-0.551,0.449-1,1-1h4c1.654,0,3-1.346,3-3V0h-2v2c0,0.551-0.449,1-1,1h-4c-1.654,0-3,1.346-3,3v2h2V6z"></path><path d="M30,6c0-0.551,0.449-1,1-1h4c1.654,0,3-1.346,3-3V0h-2v2c0,0.551-0.449,1-1,1h-4c-1.654,0-3,1.346-3,3v2h2V6z"></path><path d="M41,6c0-0.551,0.449-1,1-1h4c1.654,0,3-1.346,3-3V0h-2v2c0,0.551-0.449,1-1,1h-4c-1.654,0-3,1.346-3,3v2h2V6z"></path><rect x="14.343" y="18" transform="matrix(0.7071 -0.7071 0.7071 0.7071 -7.5772 19.7071)" width="11.314" height="2"></rect><rect x="22.343" y="18" transform="matrix(0.7071 -0.7071 0.7071 0.7071 -5.234 25.364)" width="11.314" height="2"></rect><rect x="30.343" y="18" transform="matrix(0.7071 -0.7071 0.7071 0.7071 -2.8909 31.0208)" width="11.314" height="2"></rect><rect x="38.343" y="18" transform="matrix(0.7071 -0.7071 0.7071 0.7071 -0.5477 36.6777)" width="11.314" height="2"></rect></g></g></svg>