<svg xmlns="http://www.w3.org/2000/svg" viewBox="0 0 64 64"><path d="M63.634 13.227a.995.995 0 0 0-.83-.207l-5 1c-.028.005-.049.022-.076.03C56.229 11.624 53.554 10 50.5 10h-37c-3.054 0-5.729 1.624-7.228 4.049-.027-.008-.048-.024-.076-.03l-5-1A.998.998 0 0 0 0 14v8a.998.998 0 0 0 1.196.98l4.596-.919C7.143 24.972 10.086 27 13.5 27H21v10.182A4.824 4.824 0 0 0 25.818 42c.802 0 1.541.326 2.082.918.54.592.798 1.357.726 2.156L27 63v1h2l-.004-.909 1.622-17.836a4.828 4.828 0 0 0-1.241-3.685A4.829 4.829 0 0 0 25.818 40 2.821 2.821 0 0 1 23 37.182V27h2v5c0 1.654 1.346 3 3 3s3-1.346 3-3v-5h2v5c0 1.654 1.346 3 3 3s3-1.346 3-3v-5h2v10.182A2.821 2.821 0 0 1 38.182 40c-1.35 0-2.647.572-3.558 1.569a4.828 4.828 0 0 0-1.241 3.685L35 63v1h2l-.004-1.091-1.622-17.835a2.785 2.785 0 0 1 .726-2.156A2.789 2.789 0 0 1 38.182 42 4.824 4.824 0 0 0 43 37.182V27h7.5c3.414 0 6.357-2.028 7.708-4.939l4.596.919A1 1 0 0 0 64 22v-8c0-.3-.134-.583-.366-.773zM5 20.18l-3 .6v-5.56l3 .6v4.36zM29 32c0 .551-.449 1-1 1-.551 0-1-.449-1-1v-5h2v5zm8 0c0 .551-.449 1-1 1-.551 0-1-.449-1-1v-5h2v5zm13.5-7h-37C9.916 25 7 22.084 7 18.5S9.916 12 13.5 12h37c3.584 0 6.5 2.916 6.5 6.5S54.084 25 50.5 25zM62 20.78l-3-.6v-4.36l3-.6v5.56zM19 6c0-.551.449-1 1-1h4c1.654 0 3-1.346 3-3V0h-2v2c0 .551-.449 1-1 1h-4c-1.654 0-3 1.346-3 3v2h2V6zM30 6c0-.551.449-1 1-1h4c1.654 0 3-1.346 3-3V0h-2v2c0 .551-.449 1-1 1h-4c-1.654 0-3 1.346-3 3v2h2V6zM41 6c0-.551.449-1 1-1h4c1.654 0 3-1.346 3-3V0h-2v2c0 .551-.449 1-1 1h-4c-1.654 0-3 1.346-3 3v2h2V6z"/><path d="M15.293 22.293l8-8 1.414 1.414-8 8zM23.293 22.293l8-8 1.414 1.414-8 8zM31.292 22.293l8-8 1.415 1.414-8 8zM39.292 22.293l8-8 1.415 1.414-8 8z"/></svg>