<svg xmlns="http://www.w3.org/2000/svg" viewBox="0 0 100 100"><path d="M11.011 56.646c-1.097.004-2.046.848-1.917 2.081C11.255 79.2 29.06 94.998 48.035 94.998c-.996-20.119-16.912-36.394-37.024-38.352zm31.864-20.921a55.124 55.124 0 0 1 5.781-6.729 1.913 1.913 0 0 1 2.689 0 55.182 55.182 0 0 1 5.78 6.728c2.063-2.894 4.363-5.584 6.921-8.008-2.615-8.14-6.966-15.706-12.716-22.147-.746-.734-1.856-.795-2.659 0-5.751 6.442-10.102 14.009-12.715 22.148 2.555 2.424 4.857 5.115 6.919 8.008zm-10.05 24.979a54.566 54.566 0 0 1 7.772-21.615c-.001-.002-.006-.004-.008-.008-4.964-7.387-11.744-13.286-19.73-17.279-1.151-.484-2.119.252-2.444.952a50.51 50.51 0 0 0-.229 31.228 45.03 45.03 0 0 1 14.639 6.722zm30.791 2.757A50.862 50.862 0 0 0 50 33.097a50.855 50.855 0 0 0-13.615 30.364c6.341 5.44 11.128 12.599 13.613 20.739 2.484-8.14 7.276-15.299 13.618-20.739zm-4.213-24.372a54.543 54.543 0 0 1 7.771 21.615 45.012 45.012 0 0 1 14.639-6.722 50.493 50.493 0 0 0-.225-31.22c-.488-1.065-1.67-1.285-2.443-.962-7.988 3.993-14.769 9.893-19.734 17.281-.002.004-.006.005-.008.008zm29.583 17.559C68.874 58.606 52.958 74.881 51.963 95c18.976 0 36.779-15.798 38.94-36.271.129-1.233-.82-2.077-1.917-2.081z"/></svg>