<svg xmlns="http://www.w3.org/2000/svg" viewBox="0 0 90 90"><path fill-rule="evenodd" clip-rule="evenodd" d="M61.511 26.15a15.163 15.163 0 0 0-3.026-4.679 15.127 15.127 0 0 0-4.515-3.259 14.89 14.89 0 0 0-5.54-1.396 7.412 7.412 0 0 0-.814-.047h-.047c-.327.016-.574.023-.745.023a15.132 15.132 0 0 0-5.609 1.397 15.136 15.136 0 0 0-4.517 3.259 14.562 14.562 0 0 0-3.026 4.702v-.023a14.893 14.893 0 0 0-1.118 5.702c-.015 2.064.537 4.182 1.654 6.355a20.087 20.087 0 0 0 2.164 3.352 33.52 33.52 0 0 0 1.56 1.816.16.16 0 0 1 .071.07c.527.496.892.978 1.093 1.443.108.233.179.52.21.862.046.371.069.822.069 1.35v1.048c0 .62.117 1.218.349 1.792.234.543.56 1.024.978 1.443h.025c.418.419.892.745 1.42.977h.023a4.293 4.293 0 0 0 1.769.373h7.287c.62 0 1.209-.124 1.769-.373a4.624 4.624 0 0 0 2.421-2.42 4.474 4.474 0 0 0 .371-1.792v-1.048c0-.527.023-.979.071-1.35.029-.342.092-.637.186-.885.108-.233.264-.473.466-.722v-.023c.187-.233.403-.466.651-.699l.047-.046a27.055 27.055 0 0 0 1.583-1.816 20.158 20.158 0 0 0 2.165-3.352c1.117-2.173 1.667-4.291 1.652-6.355a15.167 15.167 0 0 0-1.097-5.679zm20.274 16.992c0 6.875-1.753 13.02-5.261 18.436a36.084 36.084 0 0 1-4.958 6.075c-6.75 6.797-14.913 10.195-24.486 10.195-6.457 0-12.292-1.544-17.505-4.632-.249.295-.56.527-.932.698l-16.131 7.658a2.717 2.717 0 0 1-1.606.21 2.605 2.605 0 0 1-1.443-.745 2.606 2.606 0 0 1-.746-1.443 2.712 2.712 0 0 1 .21-1.605l7.658-16.271c.14-.311.334-.574.583-.792-3.197-5.261-4.796-11.188-4.796-17.784 0-9.621 3.376-17.807 10.125-24.558a38.165 38.165 0 0 1 1.63-1.536c2.204-1.956 4.539-3.57 7.006-4.842 4.812-2.514 10.127-3.77 15.947-3.77 9.573 0 17.736 3.382 24.486 10.148 6.426 6.378 9.824 14.029 10.195 22.952.017.527.024 1.063.024 1.606zM51.386 25.266a6.225 6.225 0 0 0-2.235-.559 1.657 1.657 0 0 1-1.188-.583 1.675 1.675 0 0 1-.441-1.233c.031-.466.225-.854.582-1.165.357-.31.769-.457 1.234-.441a9.58 9.58 0 0 1 3.515.907 9.229 9.229 0 0 1 2.84 2.049 9.67 9.67 0 0 1 1.884 2.956 9.273 9.273 0 0 1 .699 3.562c0 .465-.171.869-.512 1.21a1.616 1.616 0 0 1-1.188.489c-.48 0-.884-.163-1.21-.489a1.654 1.654 0 0 1-.513-1.21c0-.792-.146-1.552-.441-2.281-.279-.699-.683-1.327-1.211-1.886s-1.134-1.001-1.815-1.326zm6.401 10.102c0 .512-.188.954-.56 1.326-.356.357-.8.536-1.326.536-.512 0-.946-.179-1.303-.536a1.806 1.806 0 0 1-.56-1.326c0-.513.186-.956.56-1.327a1.772 1.772 0 0 1 1.303-.536c.526 0 .97.178 1.326.536.373.372.56.814.56 1.327zm-5.89 19.343H43.4c-.712 0-1.318.256-1.815.769-.512.497-.769 1.094-.769 1.792 0 .714.249 1.319.746 1.815l.023.024a2.474 2.474 0 0 0 1.815.744h8.497a2.47 2.47 0 0 0 1.815-.744 2.55 2.55 0 0 0 .745-1.84c0-.698-.248-1.295-.745-1.792v-.023a2.515 2.515 0 0 0-1.815-.745zm-9.171 7.727h-.023c-.497.497-.745 1.103-.745 1.816s.257 1.318.769 1.815a2.47 2.47 0 0 0 1.816.745h6.122c.697 0 1.295-.248 1.792-.745h.022c.497-.497.746-1.102.746-1.815s-.249-1.319-.746-1.816c-.512-.512-1.117-.768-1.814-.768h-6.122a2.443 2.443 0 0 0-1.817.768z"/></svg>