<svg xmlns="http://www.w3.org/2000/svg" viewBox="0 0 100 100"><path d="M54.404 30.218L50 24.19l-4.404 6.028a14.122 14.122 0 0 0 0 16.663L50 52.909l4.404-6.028a14.122 14.122 0 0 0 0-16.663zm-1.865-7.883l2.912 3.985V6.602a1.572 1.572 0 0 0-3.144 0v15.483c.076.084.164.157.232.25zm-5.078 0c.068-.093.156-.166.233-.25V6.602a1.572 1.572 0 0 0-3.144 0V26.32l2.911-3.985zm-7.009 26.142l-11.417-5.709v5.647a14.333 14.333 0 0 0 7.923 12.82l11.417 5.709v-5.647a14.333 14.333 0 0 0-7.923-12.82zm-.515-3.774V12.795a1.572 1.572 0 0 0-3.144 0v30.336l3.144 1.572zm-9.496-4.747l1.738.869V22.17a1.572 1.572 0 0 0-3.144 0v17.083l1.406.703zm21.184 21.34v5.647l11.417-5.709a14.333 14.333 0 0 0 7.923-12.82v-5.647l-11.417 5.709a14.333 14.333 0 0 0-7.923 12.82zm11.583-18.165V12.795a1.572 1.572 0 0 0-3.144 0v31.907l3.144-1.571zm6.351-3.176l1.406-.703V22.17a1.572 1.572 0 0 0-3.144 0v18.655l1.738-.87z"/><path d="M59.548 66.559a14.333 14.333 0 0 0-7.923 12.82 1.625 1.625 0 1 1-3.249 0 14.333 14.333 0 0 0-7.923-12.82L29.036 60.85v5.647a14.333 14.333 0 0 0 7.923 12.82l10.84 5.42v7.605c0 1.469.985 2.658 2.201 2.658 1.215 0 2.201-1.189 2.201-2.657v-7.605l10.841-5.42a14.333 14.333 0 0 0 7.923-12.82v-5.647l-11.417 5.708z"/></svg>