<svg xmlns="http://www.w3.org/2000/svg" xmlns:xlink="http://www.w3.org/1999/xlink" version="1.1" x="0px" y="0px" viewBox="0 0 100 100" enable-background="new 0 0 100 100" xml:space="preserve"><path fill="#000000" d="M54.404,30.218L50,24.19l-4.404,6.028c-3.626,4.963-3.626,11.7,0,16.663L50,52.909  l4.404-6.028C58.03,41.919,58.03,35.181,54.404,30.218z"></path><path fill="#000000" d="M52.539,22.335l2.912,3.985V6.602c0-0.868-0.704-1.572-1.572-1.572  c-0.868,0-1.572,0.704-1.572,1.572v15.483C52.383,22.169,52.471,22.242,52.539,22.335z"></path><path fill="#000000" d="M47.461,22.335c0.068-0.093,0.156-0.166,0.233-0.25V6.602c0-0.868-0.704-1.572-1.572-1.572  c-0.868,0-1.572,0.704-1.572,1.572v19.718L47.461,22.335z"></path><path fill="#000000" d="M40.452,48.477l-11.417-5.709v5.647c0,5.429,3.067,10.392,7.923,12.82l11.417,5.709v-5.647  C48.375,55.868,45.308,50.905,40.452,48.477z"></path><path fill="#000000" d="M39.937,44.703V12.795c0-0.868-0.704-1.572-1.572-1.572c-0.868,0-1.572,0.704-1.572,1.572  v30.336L39.937,44.703z"></path><path fill="#000000" d="M30.441,39.956l1.738,0.869V22.17c0-0.868-0.704-1.572-1.572-1.572  s-1.572,0.704-1.572,1.572v17.083L30.441,39.956z"></path><path fill="#000000" d="M51.625,61.296v5.647l11.417-5.709c4.856-2.428,7.923-7.391,7.923-12.82v-5.647  l-11.417,5.709C54.692,50.904,51.625,55.867,51.625,61.296z"></path><path fill="#000000" d="M63.208,43.131V12.795c0-0.868-0.704-1.572-1.572-1.572c-0.868,0-1.572,0.704-1.572,1.572  v31.907L63.208,43.131z"></path><path fill="#000000" d="M69.559,39.955l1.406-0.703V22.17c0-0.868-0.704-1.572-1.572-1.572  c-0.868,0-1.572,0.704-1.572,1.572v18.655L69.559,39.955z"></path><path fill="#000000" d="M59.548,66.559c-4.856,2.428-7.923,7.391-7.923,12.82c0,0.897-0.727,1.625-1.624,1.625  c-0.897,0-1.625-0.727-1.625-1.625l0,0c0-5.429-3.067-10.392-7.923-12.82l-11.417-5.709v5.647c0,5.429,3.067,10.392,7.923,12.82  l10.84,5.42v7.605C47.799,93.811,48.784,95,50,95c1.215,0,2.201-1.189,2.201-2.657v-7.605l10.841-5.42  c4.856-2.428,7.923-7.391,7.923-12.82v-5.647L59.548,66.559z"></path></svg>