<svg xmlns="http://www.w3.org/2000/svg" viewBox="0 0 100 100"><path d="M61.896 25.597c0-.105-.006-.21-.011-.316.005-.108.011-.211.011-.319 0-.658-.125-1.393-.339-2.176a11.716 11.716 0 0 0-.862-2.397C57.683 13.416 50 4.341 50 4.341s-7.683 9.075-10.701 16.048a12.036 12.036 0 0 0-.86 2.397c-.217.783-.336 1.518-.336 2.176 0 .108.005.21.005.319 0 .105-.005.21-.005.316 0 .658.119 1.393.336 2.175.205.837.492 1.64.86 2.398C42.317 37.146 50 46.221 50 46.221s7.683-9.075 10.695-16.051c.37-.758.66-1.561.862-2.398.214-.782.339-1.517.339-2.175zM72.993 61.401c.077-.074.146-.154.22-.228.074-.074.153-.148.23-.223.464-.461.896-1.07 1.301-1.776.444-.735.809-1.51 1.082-2.301 2.803-7.068 3.787-18.919 3.787-18.919s-11.851.991-18.915 3.787a11.77 11.77 0 0 0-2.304 1.088c-.703.404-1.31.832-1.777 1.298-.073.074-.142.154-.216.228-.077.074-.157.148-.233.222-.465.461-.895 1.07-1.299 1.777-.45.734-.812 1.509-1.085 2.301C50.982 55.724 50 67.574 50 67.574s11.846-.984 18.913-3.787a11.772 11.772 0 0 0 2.301-1.087c.706-.399 1.315-.832 1.779-1.299zM27.004 61.401a7.549 7.549 0 0 1-.216-.228c-.077-.074-.157-.148-.234-.223-.464-.461-.894-1.07-1.298-1.776a11.76 11.76 0 0 1-1.085-2.301c-2.799-7.068-3.784-18.919-3.784-18.919s11.846.991 18.913 3.787c.792.273 1.566.638 2.301 1.088.706.404 1.315.832 1.777 1.298.08.074.148.154.222.228.074.074.153.148.23.222.464.461.897 1.07 1.298 1.777a11.88 11.88 0 0 1 1.085 2.301C49.015 55.724 50 67.574 50 67.574s-11.851-.984-18.916-3.787A11.85 11.85 0 0 1 28.78 62.7c-.703-.399-1.309-.832-1.776-1.299z"/><g><path d="M72.993 89.488c.077-.073.146-.153.22-.23.074-.071.153-.143.23-.219.464-.465.896-1.071 1.301-1.774a12.07 12.07 0 0 0 1.082-2.304c2.803-7.067 3.787-18.915 3.787-18.915s-11.85.984-18.915 3.784c-.795.273-1.566.638-2.304 1.085-.703.404-1.31.837-1.777 1.301-.073.077-.142.154-.216.23-.077.074-.157.146-.233.22-.465.464-.895 1.07-1.299 1.776-.45.735-.812 1.507-1.085 2.301C50.982 83.811 50 95.659 50 95.659s11.846-.988 18.913-3.784a11.893 11.893 0 0 0 2.301-1.088c.706-.401 1.315-.834 1.779-1.299zM27.004 89.488a4.667 4.667 0 0 1-.216-.23c-.077-.071-.157-.143-.234-.219-.464-.465-.894-1.071-1.298-1.774a11.73 11.73 0 0 1-1.085-2.304c-2.799-7.067-3.784-18.915-3.784-18.915s11.846.984 18.913 3.784c.792.273 1.566.638 2.301 1.085.706.404 1.315.837 1.777 1.301.08.077.148.154.222.23.074.074.153.146.23.22.464.464.897 1.07 1.298 1.776.447.735.812 1.507 1.085 2.301C49.015 83.811 50 95.659 50 95.659s-11.851-.988-18.916-3.784a11.973 11.973 0 0 1-2.304-1.088c-.703-.401-1.309-.834-1.776-1.299z"/></g></svg>