<svg xmlns="http://www.w3.org/2000/svg" viewBox="206 206 100 100"><path d="M282.8 247c0-.1 0-.1 0 0V246s0-.1-.1-.1v-.1s0-.1-.1-.1l-.1-.1s0-.1-.1-.1l-.1-.1-.1-.1s-.1 0-.1-.1c-6.5-4.8-16-7.6-26-7.6H255v-8c0-3.1-.6-5.4-2-7.1-1.7-2.2-4.6-3.4-8.5-3.4h-13.2c-1.1 0-2 .9-2 2s.9 2 2 2h11.2v4.6h-11.2c-1.1 0-2 .9-2 2s.9 2 2 2h11.2v7.8c-4.7 1.3-8.9 3.3-12.4 5.8 0 0-.1 0-.1.1l-.1.1-.1.1s0 .1-.1.1l-.1.1s0 .1-.1.1v.1s0 .1-.1.1v12.3c0 1 .7 1.8 1.6 1.9v31.1c0 1.1.9 2 2 2h46.5c1.1 0 2-.9 2-2v-31.2c.8-.2 1.4-1 1.4-1.9l-.1-11.3zm-27.7 42.4v-29.1h4.1v29.1h-4.1zm-11.7 0v-29.1h7.7v29.1h-7.7zm16-33h-4.6V249h4.6v7.4zm-17 0V249h8.5v7.4h-8.5zm31-11.3h-34.8c5.1-2.1 11.1-3.3 17.3-3.3 6.4 0 12.5 1.1 17.5 3.3zm-22.5-17.2h-4.5v-4.5c3 .5 4.1 2.1 4.5 4.5zm-4.5 3.9h4.6v6.3c-1.6.2-3.1.4-4.6.6v-6.9z"/></svg>