<svg xmlns="http://www.w3.org/2000/svg" viewBox="0 0 100 100"><style>.st0{fill:#030202}.st1{fill:#020202}</style><path class="st0" d="M53.5 14.7c-2.1-12.7-22-6.4-20.9 5 1.1-.8 2.1-1.6 3.2-2.4-10.6-2.5-21 8.9-17.2 19.4 4.1 11.2 18.2 10.7 25.3 3.2-1.4-.4-2.8-.7-4.2-1.1 3.4 11.1 16.8 7.6 20.9-1h-4.3c3.3 7.7 16.4 8.2 20.5 1 2.1-3.7 2.1-9.1.5-13-1.8-4.1-5.9-5.6-10-6.6.4 1.4.7 2.8 1.1 4.2 5.7-4.6.4-13.8-5.3-15.7-5.7-1.9-10.2 2.6-14.1 6.2-2.4 2.2 1.2 5.7 3.5 3.5 1.5-1.4 3.1-2.9 4.8-4 1.7-1.1 2.9-1.8 5-.6 1.8 1 4.9 5.2 2.5 7.1-1.5 1.2-.6 3.8 1.1 4.2 5 1.2 8 3.4 7.4 9-.4 3.3-1.9 5.6-5.3 5.8-2.9.2-6.1-.7-7.3-3.5-.7-1.7-3.6-1.6-4.3 0-2 4.2-9.5 9.4-11.7 2.2-.5-1.7-2.8-2.5-4.2-1.1-4.5 4.7-13 6.4-16.6-.4-3.6-6.6 3.6-15.5 10.7-13.8 1.4.3 3.3-.7 3.2-2.4C37 14 47.5 9 48.6 16c.6 3.2 5.4 1.8 4.9-1.3z"/><path class="st0" d="M23.8 44c.4 7.2.7 14.5 1.1 21.7.2 5.3-.2 11.3 1.1 16.5 2.6 10.7 17 8.7 25.3 8.1 8.8-.6 19.1-1.6 20.7-12 1-6 .7-12.5.5-18.6-.1-6 .3-13.2-1.8-18.9-1.1-3-6-1.7-4.8 1.3 1.8 4.7 1.5 10.6 1.6 15.6.1 4.4.1 8.9 0 13.4-.2 5.1.2 10.5-5.4 12.6-3.9 1.5-8.4 1.5-12.5 1.7-4.3.3-9.5 1.1-13.7-.2-5.8-1.7-5.4-6.5-5.6-11.7-.5-9.9-1-19.7-1.5-29.6-.2-3.1-5.2-3.1-5 .1z"/><path class="st0" d="M70 76.3c12 4.8 13.7-8.5 12.7-17.3-.4-3.7-.9-9.1-4.4-11.4-3-2-6.2-.6-8.1 2.1-1.8 2.7 2.5 5.2 4.3 2.5 1.5-2.2 2.8 4.3 2.7 4.1.4 2 .6 4 .8 6 .2 4 .1 11.9-6.7 9.2-3-1.2-4.3 3.6-1.3 4.8z"/><path class="st1" d="M33.2 57.9c.6 3.1 3.9 5.6 7 5.2 3.9-.6 5.5-4.4 6.4-7.8.6-2.4-3.1-3.4-3.7-1-.4 1.6-.8 3.9-2.5 4.8-1.5.8-3.1-.6-3.4-2.2-.5-2.4-4.2-1.4-3.8 1zm16.7-2c.7 3.5 3.9 5.9 7.5 5.6 4.1-.5 5.6-3.8 6.5-7.3.6-2.4-3.1-3.5-3.7-1-.5 1.8-.7 3.9-2.7 4.4-1.9.5-3.4-.8-3.8-2.6-.7-2.5-4.4-1.5-3.8.9zm10.5 12.3c-7.1-3.7-15.3-3.5-22.1.5-2.2 1.2-.2 4.5 1.9 3.3 5.7-3.3 12.3-3.5 18.2-.5 2.3 1.2 4.2-2.2 2-3.3z"/></svg>