<svg xmlns="http://www.w3.org/2000/svg" viewBox="0 0 107 96"><path d="M51.272 51.527c8.208-15.043 13.388-23.555 24.26-23.555h.46v8.132c0 .724.392 1.392 1.023 1.744a2 2 0 0 0 2.017-.032l26.575-16.132a2.02 2.02 0 0 0 .957-1.712c0-.7-.36-1.348-.957-1.708L79.032 2.132a1.981 1.981 0 0 0-2.017-.036 1.996 1.996 0 0 0-1.023 1.744v8.132c-21.141 0-30.38 16.944-38.536 31.892-8.944 16.396-14.372 24.108-25.46 24.108h-10a2 2 0 0 0-2 2v12a2 2 0 0 0 2 2h10c21.576 0 30.836-16.984 39.008-31.965l.268-.48z"/><path d="M79.036 58.184a1.99 1.99 0 0 0-2.017-.031 2 2 0 0 0-1.023 1.748v8.084l-.376-.008c-8.548 0-13.647-5.217-20.032-15.988-.271.5-.523.936-.809 1.46l-.264.476c-2.364 4.344-4.912 8.969-7.879 13.393 6.196 8.567 15.084 16.66 29.36 16.66v8.188c0 .725.393 1.388 1.023 1.748.301.172.637.252.977.252.367 0 .729-.096 1.04-.288l26.571-16.128a1.998 1.998 0 0 0 .009-3.42l-26.58-16.146zM1.996 27.972h10c8.948 0 14.332 5.172 20.844 15.976.364-.656.724-1.304 1.104-2 2.36-4.328 4.896-8.952 7.848-13.36-6.504-8.956-15.404-16.616-29.796-16.616h-10a2 2 0 0 0-2 2v12c0 1.108.896 2 2 2z"/></svg>