<svg xmlns="http://www.w3.org/2000/svg" viewBox="0 0 64 64"><path d="M15 45.5c-1.654 0-3 1.346-3 3s1.346 3 3 3 3-1.346 3-3-1.346-3-3-3zm0 4a1 1 0 1 1 0-2 1 1 0 0 1 0 2zM19 34c-2.206 0-4 1.794-4 4s1.794 4 4 4 4-1.794 4-4-1.794-4-4-4zm0 6c-1.103 0-2-.897-2-2s.897-2 2-2 2 .897 2 2-.897 2-2 2zm8 2.5c-1.654 0-3 1.346-3 3s1.346 3 3 3 3-1.346 3-3-1.346-3-3-3zm0 4a1 1 0 1 1 0-2 1 1 0 0 1 0 2zM15 30c0-1.654-1.346-3-3-3s-3 1.346-3 3 1.346 3 3 3 3-1.346 3-3zm-4 0a1 1 0 1 1 2 0 1 1 0 0 1-2 0z"/><path d="M59 50V15a1 1 0 0 0-1-1c-3.309 0-6 2.691-6 6v3h-4c0-3.859-3.141-7-7-7h-4v-1.837c0-2.552-1.825-4.748-4.245-5.107a4.96 4.96 0 0 0-4.258 1.393A4.96 4.96 0 0 0 25 9a4.966 4.966 0 0 0-3.5 1.45A4.966 4.966 0 0 0 18 9a4.96 4.96 0 0 0-3.524 1.476C13.501 9.57 12.12 9 10.75 9c-1.687 0-3.211.832-4.529 2.475a.996.996 0 0 0-.221.626v38.622l-1.04 1.733a2.967 2.967 0 0 0-.038 3.022A2.966 2.966 0 0 0 7.532 57h27.936a2.966 2.966 0 0 0 2.61-1.521 2.967 2.967 0 0 0-.038-3.022L37 50.723V50h4a6.955 6.955 0 0 0 3-.685V50a1 1 0 0 0-1 1v9h2v-4h13v4h2v-9a1 1 0 0 0-1-1zm-7-12a1 1 0 0 1-1 1h-8a1 1 0 0 1 0-2h8a1 1 0 0 1 1 1zM37 22h4a1 1 0 0 1 1 1v.184A2.996 2.996 0 0 0 40 26c0 .771.301 1.468.78 2-.48.532-.78 1.229-.78 2s.301 1.468.78 2c-.48.532-.78 1.229-.78 2s.301 1.468.78 2a2.976 2.976 0 0 0-.78 2c0 1.302.839 2.402 2 2.816V43a1 1 0 0 1-1 1h-4V22zm15 8a1 1 0 0 1-1 1h-8a1 1 0 0 1 0-2h8a1 1 0 0 1 1 1zm0 4a1 1 0 0 1-1 1h-8a1 1 0 0 1 0-2h8a1 1 0 0 1 1 1zm-2-9h1a1 1 0 0 1 0 2h-8a1 1 0 0 1 0-2h7zm-9-7c2.757 0 5 2.243 5 5h-2c0-1.654-1.346-3-3-3h-4v-2h4zM8 12.465C8.866 11.479 9.768 11 10.75 11c1.166 0 2.374.664 2.872 1.579.35.643 1.406.643 1.756 0C15.908 11.604 16.913 11 18 11s2.092.604 2.622 1.579c.35.643 1.406.643 1.756 0C22.908 11.604 23.913 11 25 11s2.092.604 2.622 1.579c.35.643 1.405.644 1.757-.001a2.987 2.987 0 0 1 3.082-1.544c1.447.215 2.539 1.561 2.539 3.129V20h-5a1 1 0 0 0-1 1v13c0 .827-.673 1.5-1.5 1.5S26 34.827 26 34V21a1 1 0 0 0-1-1h-4a1 1 0 0 0-1 1v3.5c0 .827-.673 1.5-1.5 1.5s-1.5-.673-1.5-1.5V21a1 1 0 0 0-1-1H8v-7.535zm28.338 42.028a.981.981 0 0 1-.87.507H7.532a.981.981 0 0 1-.87-.507.983.983 0 0 1 .013-1.008l1.183-1.971A.997.997 0 0 0 8 51V22h7v2.5c0 1.93 1.57 3.5 3.5 3.5s3.5-1.57 3.5-3.5V22h2v12c0 1.93 1.57 3.5 3.5 3.5S31 35.93 31 34V22h4v29c0 .182.049.359.143.515l1.183 1.971c.27.451.098.854.012 1.007zM37 48v-2h4c1.654 0 3-1.346 3-3v-2h2v2c0 2.757-2.243 5-5 5h-4zm9-.111A6.975 6.975 0 0 0 48 43v-2h3c1.654 0 3-1.346 3-3a2.98 2.98 0 0 0-.78-2c.48-.532.78-1.229.78-2s-.301-1.468-.78-2c.48-.532.78-1.229.78-2s-.301-1.468-.78-2c.48-.532.78-1.229.78-2 0-.462-.114-.895-.301-1.287A.994.994 0 0 0 54 24v-4a4.005 4.005 0 0 1 3-3.873V50H46v-2.111zM45 54v-2h13v2H45z"/><path d="M31 51h2v2h-2zm-4 0h2v2h-2zm-4 0h2v2h-2z"/></svg>