<svg xmlns="http://www.w3.org/2000/svg" xmlns:xlink="http://www.w3.org/1999/xlink" version="1.1" x="0px" y="0px" viewBox="0 0 64 64" style="enable-background:new 0 0 64 64;" xml:space="preserve"><g class="Graphic_x0020_Style_x0020_2"><g class="Graphic_x0020_Style_x0020_2"><path class="Graphic_x0020_Style_x0020_2" d="M12,17h20v6c0,2.2,1.8,4,4,4s4-1.8,4-4v-6h6c0.6,0,1-0.4,1-1v-4c0-3.3-2.7-6-6-6    h-1.1c-0.4-1.7-2-3-3.9-3c-1,0-2,0.4-2.7,1c-1.1-2.4-3.5-4-6.3-4c-3.9,0-7,3.1-7,7h-4c-2.8,0-5,2.2-5,5v4C11,16.6,11.4,17,12,17z     M13,12c0-1.7,1.3-3,3-3h5c0.6,0,1-0.4,1-1V7c0-2.8,2.2-5,5-5s5,2.2,5,5c0,0.6,0.4,1,1,1s1-0.4,1-1c0-1.1,0.9-2,2-2s2,0.9,2,2    c0,0.6,0.4,1,1,1h2c2.2,0,4,1.8,4,4v3h-6c-0.6,0-1,0.4-1,1v7c0,1.1-0.9,2-2,2s-2-0.9-2-2v-7c0-0.6-0.4-1-1-1H13V12z M47,23.1V20    c0-0.6-0.4-1-1-1s-1,0.4-1,1v37c0,0.6,0.4,1,1,1c1.1,0,2,0.9,2,2s-0.9,2-2,2H12c-1.1,0-2-0.9-2-2s0.9-2,2-2c0.6,0,1-0.4,1-1V20    c0-0.6-0.4-1-1-1s-1,0.4-1,1v36.1c-1.7,0.4-3,2-3,3.9c0,2.2,1.8,4,4,4h34c2.2,0,4-1.8,4-4c0-1.9-1.3-3.4-3-3.9v-6.2    c4.5-0.5,8-4.3,8-8.9v-9C55,27.4,51.5,23.6,47,23.1z M53,41c0,3.5-2.6,6.4-6,6.9V25.1c3.4,0.5,6,3.4,6,6.9V41z M16,31    c0-0.6,0.4-1,1-1s1,0.4,1,1v24c0,0.6,0.4,1,1,1h3V46c0-0.6,0.4-1,1-1s1,0.4,1,1v10h4v-1c0-0.6,0.4-1,1-1s1,0.4,1,1v1h11    c0.6,0,1,0.4,1,1s-0.4,1-1,1H19c-1.7,0-3-1.3-3-3V31z M16,27v-1c0-0.6,0.4-1,1-1s1,0.4,1,1v1c0,0.6-0.4,1-1,1S16,27.6,16,27z     M22,38c0-0.6,0.4-1,1-1s1,0.4,1,1v4c0,0.6-0.4,1-1,1s-1-0.4-1-1V38z M22,31v-1c0-0.6,0.4-1,1-1s1,0.4,1,1v1c0,0.6-0.4,1-1,1    S22,31.6,22,31z M28,42c0-0.6,0.4-1,1-1s1,0.4,1,1v9c0,0.6-0.4,1-1,1s-1-0.4-1-1V42z M28,34c0-0.6,0.4-1,1-1s1,0.4,1,1v1    c0,0.6-0.4,1-1,1s-1-0.4-1-1V34z M28,27v-1c0-0.6,0.4-1,1-1s1,0.4,1,1v1c0,0.6-0.4,1-1,1S28,27.6,28,27z M34,46c0-0.6,0.4-1,1-1    s1,0.4,1,1v1c0,0.6-0.4,1-1,1s-1-0.4-1-1V46z M34,38c0-0.6,0.4-1,1-1s1,0.4,1,1v1c0,0.6-0.4,1-1,1s-1-0.4-1-1V38z M34,31v-1    c0-0.6,0.4-1,1-1s1,0.4,1,1v1c0,0.6-0.4,1-1,1S34,31.6,34,31z M42,43c0,0.6-0.4,1-1,1s-1-0.4-1-1v-9c0-0.6,0.4-1,1-1s1,0.4,1,1V43    z M42,51c0,0.6-0.4,1-1,1s-1-0.4-1-1v-1c0-0.6,0.4-1,1-1s1,0.4,1,1V51z"></path></g><g class="Graphic_x0020_Style_x0020_2"><path class="Graphic_x0020_Style_x0020_2" d="M12,17h20v6c0,2.2,1.8,4,4,4s4-1.8,4-4v-6h6c0.6,0,1-0.4,1-1v-4c0-3.3-2.7-6-6-6    h-1.1c-0.4-1.7-2-3-3.9-3c-1,0-2,0.4-2.7,1c-1.1-2.4-3.5-4-6.3-4c-3.9,0-7,3.1-7,7h-4c-2.8,0-5,2.2-5,5v4C11,16.6,11.4,17,12,17z     M13,12c0-1.7,1.3-3,3-3h5c0.6,0,1-0.4,1-1V7c0-2.8,2.2-5,5-5s5,2.2,5,5c0,0.6,0.4,1,1,1s1-0.4,1-1c0-1.1,0.9-2,2-2s2,0.9,2,2    c0,0.6,0.4,1,1,1h2c2.2,0,4,1.8,4,4v3h-6c-0.6,0-1,0.4-1,1v7c0,1.1-0.9,2-2,2s-2-0.9-2-2v-7c0-0.6-0.4-1-1-1H13V12z M47,23.1V20    c0-0.6-0.4-1-1-1s-1,0.4-1,1v37c0,0.6,0.4,1,1,1c1.1,0,2,0.9,2,2s-0.9,2-2,2H12c-1.1,0-2-0.9-2-2s0.9-2,2-2c0.6,0,1-0.4,1-1V20    c0-0.6-0.4-1-1-1s-1,0.4-1,1v36.1c-1.7,0.4-3,2-3,3.9c0,2.2,1.8,4,4,4h34c2.2,0,4-1.8,4-4c0-1.9-1.3-3.4-3-3.9v-6.2    c4.5-0.5,8-4.3,8-8.9v-9C55,27.4,51.5,23.6,47,23.1z M53,41c0,3.5-2.6,6.4-6,6.9V25.1c3.4,0.5,6,3.4,6,6.9V41z M16,31    c0-0.6,0.4-1,1-1s1,0.4,1,1v24c0,0.6,0.4,1,1,1h3V46c0-0.6,0.4-1,1-1s1,0.4,1,1v10h4v-1c0-0.6,0.4-1,1-1s1,0.4,1,1v1h11    c0.6,0,1,0.4,1,1s-0.4,1-1,1H19c-1.7,0-3-1.3-3-3V31z M16,27v-1c0-0.6,0.4-1,1-1s1,0.4,1,1v1c0,0.6-0.4,1-1,1S16,27.6,16,27z     M22,38c0-0.6,0.4-1,1-1s1,0.4,1,1v4c0,0.6-0.4,1-1,1s-1-0.4-1-1V38z M22,31v-1c0-0.6,0.4-1,1-1s1,0.4,1,1v1c0,0.6-0.4,1-1,1    S22,31.6,22,31z M28,42c0-0.6,0.4-1,1-1s1,0.4,1,1v9c0,0.6-0.4,1-1,1s-1-0.4-1-1V42z M28,34c0-0.6,0.4-1,1-1s1,0.4,1,1v1    c0,0.6-0.4,1-1,1s-1-0.4-1-1V34z M28,27v-1c0-0.6,0.4-1,1-1s1,0.4,1,1v1c0,0.6-0.4,1-1,1S28,27.6,28,27z M34,46c0-0.6,0.4-1,1-1    s1,0.4,1,1v1c0,0.6-0.4,1-1,1s-1-0.4-1-1V46z M34,38c0-0.6,0.4-1,1-1s1,0.4,1,1v1c0,0.6-0.4,1-1,1s-1-0.4-1-1V38z M34,31v-1    c0-0.6,0.4-1,1-1s1,0.4,1,1v1c0,0.6-0.4,1-1,1S34,31.6,34,31z M42,43c0,0.6-0.4,1-1,1s-1-0.4-1-1v-9c0-0.6,0.4-1,1-1s1,0.4,1,1V43    z M42,51c0,0.6-0.4,1-1,1s-1-0.4-1-1v-1c0-0.6,0.4-1,1-1s1,0.4,1,1V51z"></path></g></g></svg>