<svg xmlns="http://www.w3.org/2000/svg" viewBox="0 0 64 64"><g class="Graphic_x0020_Style_x0020_2"><g class="Graphic_x0020_Style_x0020_2"><path class="Graphic_x0020_Style_x0020_2" d="M12 17h20v6c0 2.2 1.8 4 4 4s4-1.8 4-4v-6h6c.6 0 1-.4 1-1v-4c0-3.3-2.7-6-6-6h-1.1c-.4-1.7-2-3-3.9-3-1 0-2 .4-2.7 1-1.1-2.4-3.5-4-6.3-4-3.9 0-7 3.1-7 7h-4c-2.8 0-5 2.2-5 5v4c0 .6.4 1 1 1zm1-5c0-1.7 1.3-3 3-3h5c.6 0 1-.4 1-1V7c0-2.8 2.2-5 5-5s5 2.2 5 5c0 .6.4 1 1 1s1-.4 1-1c0-1.1.9-2 2-2s2 .9 2 2c0 .6.4 1 1 1h2c2.2 0 4 1.8 4 4v3h-6c-.6 0-1 .4-1 1v7c0 1.1-.9 2-2 2s-2-.9-2-2v-7c0-.6-.4-1-1-1H13v-3zm34 11.1V20c0-.6-.4-1-1-1s-1 .4-1 1v37c0 .6.4 1 1 1 1.1 0 2 .9 2 2s-.9 2-2 2H12c-1.1 0-2-.9-2-2s.9-2 2-2c.6 0 1-.4 1-1V20c0-.6-.4-1-1-1s-1 .4-1 1v36.1c-1.7.4-3 2-3 3.9 0 2.2 1.8 4 4 4h34c2.2 0 4-1.8 4-4 0-1.9-1.3-3.4-3-3.9v-6.2c4.5-.5 8-4.3 8-8.9v-9c0-4.6-3.5-8.4-8-8.9zM53 41c0 3.5-2.6 6.4-6 6.9V25.1c3.4.5 6 3.4 6 6.9v9zM16 31c0-.6.4-1 1-1s1 .4 1 1v24c0 .6.4 1 1 1h3V46c0-.6.4-1 1-1s1 .4 1 1v10h4v-1c0-.6.4-1 1-1s1 .4 1 1v1h11c.6 0 1 .4 1 1s-.4 1-1 1H19c-1.7 0-3-1.3-3-3V31zm0-4v-1c0-.6.4-1 1-1s1 .4 1 1v1c0 .6-.4 1-1 1s-1-.4-1-1zm6 11c0-.6.4-1 1-1s1 .4 1 1v4c0 .6-.4 1-1 1s-1-.4-1-1v-4zm0-7v-1c0-.6.4-1 1-1s1 .4 1 1v1c0 .6-.4 1-1 1s-1-.4-1-1zm6 11c0-.6.4-1 1-1s1 .4 1 1v9c0 .6-.4 1-1 1s-1-.4-1-1v-9zm0-8c0-.6.4-1 1-1s1 .4 1 1v1c0 .6-.4 1-1 1s-1-.4-1-1v-1zm0-7v-1c0-.6.4-1 1-1s1 .4 1 1v1c0 .6-.4 1-1 1s-1-.4-1-1zm6 19c0-.6.4-1 1-1s1 .4 1 1v1c0 .6-.4 1-1 1s-1-.4-1-1v-1zm0-8c0-.6.4-1 1-1s1 .4 1 1v1c0 .6-.4 1-1 1s-1-.4-1-1v-1zm0-7v-1c0-.6.4-1 1-1s1 .4 1 1v1c0 .6-.4 1-1 1s-1-.4-1-1zm8 12c0 .6-.4 1-1 1s-1-.4-1-1v-9c0-.6.4-1 1-1s1 .4 1 1v9zm0 8c0 .6-.4 1-1 1s-1-.4-1-1v-1c0-.6.4-1 1-1s1 .4 1 1v1z"/></g><g class="Graphic_x0020_Style_x0020_2"><path class="Graphic_x0020_Style_x0020_2" d="M12 17h20v6c0 2.2 1.8 4 4 4s4-1.8 4-4v-6h6c.6 0 1-.4 1-1v-4c0-3.3-2.7-6-6-6h-1.1c-.4-1.7-2-3-3.9-3-1 0-2 .4-2.7 1-1.1-2.4-3.5-4-6.3-4-3.9 0-7 3.1-7 7h-4c-2.8 0-5 2.2-5 5v4c0 .6.4 1 1 1zm1-5c0-1.7 1.3-3 3-3h5c.6 0 1-.4 1-1V7c0-2.8 2.2-5 5-5s5 2.2 5 5c0 .6.4 1 1 1s1-.4 1-1c0-1.1.9-2 2-2s2 .9 2 2c0 .6.4 1 1 1h2c2.2 0 4 1.8 4 4v3h-6c-.6 0-1 .4-1 1v7c0 1.1-.9 2-2 2s-2-.9-2-2v-7c0-.6-.4-1-1-1H13v-3zm34 11.1V20c0-.6-.4-1-1-1s-1 .4-1 1v37c0 .6.4 1 1 1 1.1 0 2 .9 2 2s-.9 2-2 2H12c-1.1 0-2-.9-2-2s.9-2 2-2c.6 0 1-.4 1-1V20c0-.6-.4-1-1-1s-1 .4-1 1v36.1c-1.7.4-3 2-3 3.9 0 2.2 1.8 4 4 4h34c2.2 0 4-1.8 4-4 0-1.9-1.3-3.4-3-3.9v-6.2c4.5-.5 8-4.3 8-8.9v-9c0-4.6-3.5-8.4-8-8.9zM53 41c0 3.5-2.6 6.4-6 6.9V25.1c3.4.5 6 3.4 6 6.9v9zM16 31c0-.6.4-1 1-1s1 .4 1 1v24c0 .6.4 1 1 1h3V46c0-.6.4-1 1-1s1 .4 1 1v10h4v-1c0-.6.4-1 1-1s1 .4 1 1v1h11c.6 0 1 .4 1 1s-.4 1-1 1H19c-1.7 0-3-1.3-3-3V31zm0-4v-1c0-.6.4-1 1-1s1 .4 1 1v1c0 .6-.4 1-1 1s-1-.4-1-1zm6 11c0-.6.4-1 1-1s1 .4 1 1v4c0 .6-.4 1-1 1s-1-.4-1-1v-4zm0-7v-1c0-.6.4-1 1-1s1 .4 1 1v1c0 .6-.4 1-1 1s-1-.4-1-1zm6 11c0-.6.4-1 1-1s1 .4 1 1v9c0 .6-.4 1-1 1s-1-.4-1-1v-9zm0-8c0-.6.4-1 1-1s1 .4 1 1v1c0 .6-.4 1-1 1s-1-.4-1-1v-1zm0-7v-1c0-.6.4-1 1-1s1 .4 1 1v1c0 .6-.4 1-1 1s-1-.4-1-1zm6 19c0-.6.4-1 1-1s1 .4 1 1v1c0 .6-.4 1-1 1s-1-.4-1-1v-1zm0-8c0-.6.4-1 1-1s1 .4 1 1v1c0 .6-.4 1-1 1s-1-.4-1-1v-1zm0-7v-1c0-.6.4-1 1-1s1 .4 1 1v1c0 .6-.4 1-1 1s-1-.4-1-1zm8 12c0 .6-.4 1-1 1s-1-.4-1-1v-9c0-.6.4-1 1-1s1 .4 1 1v9zm0 8c0 .6-.4 1-1 1s-1-.4-1-1v-1c0-.6.4-1 1-1s1 .4 1 1v1z"/></g></g></svg>