<svg xmlns="http://www.w3.org/2000/svg" xmlns:xlink="http://www.w3.org/1999/xlink" version="1.1" x="0px" y="0px" viewBox="0 0 100 100" enable-background="new 0 0 100 100" xml:space="preserve"><path d="M94.911,39.743c-0.215-0.661-0.786-1.142-1.474-1.242l-28.885-4.197L51.637,8.13C51.329,7.507,50.695,7.113,50,7.113  c-0.695,0-1.329,0.395-1.637,1.018L35.446,34.304L6.562,38.501c-0.688,0.1-1.258,0.581-1.473,1.242  c-0.214,0.661-0.036,1.386,0.462,1.871l20.9,20.373l-4.934,28.768c-0.118,0.685,0.164,1.377,0.726,1.785  c0.318,0.23,0.694,0.348,1.073,0.348c0.291,0,0.582-0.069,0.849-0.209L50,79.095l25.833,13.583c0.616,0.322,1.36,0.27,1.922-0.139  s0.844-1.101,0.727-1.785l-4.934-28.768l20.901-20.373C94.946,41.129,95.126,40.404,94.911,39.743z"></path></svg>