<svg xmlns="http://www.w3.org/2000/svg" data-name="Layer 1" viewBox="0 0 100 100" x="0px" y="0px"><title>wine_fermenting_vat</title><path d="M56,7.34V2.46H44.23V7.24c-15.1.38-24.1,2.6-24.1,2.6s24.13,7.17,59.75,0A192.1,192.1,0,0,0,56,7.34Z"></path><rect x="44.23" width="11.82" height="1.4"></rect><path d="M20.13,11.62s0,65.92,0,71.22V99.42s1.13,1.31,2.93,0L26.2,84.53l2,.33v9a1.22,1.22,0,0,0,1.72,0l1.8-8.55a146.25,146.25,0,0,0,36.7-.27l1.86,8.83a1.22,1.22,0,0,0,1.72,0V84.58l1.79-.28,3.19,15.12c1.81,1.31,2.93,0,2.93,0V11.62S51.15,18.52,20.13,11.62Z"></path></svg>