<svg xmlns="http://www.w3.org/2000/svg" viewBox="0 0 100 100"><path d="M89.665 36.461a12.63 12.63 0 0 0-8.508-4.713L65.52 29.973a12.653 12.653 0 0 0-4.977.426 12.657 12.657 0 0 0-.991-3.516l-6.426-14.365c-2.861-6.397-10.395-9.272-16.788-6.41-6.396 2.861-9.272 10.393-6.41 16.787l6.428 14.367a12.656 12.656 0 0 0 2.008 3.146l-8.693 1.796c-6.484 1.341-10.788 7.431-10.046 13.887a12.658 12.658 0 0 0-5.879 1.791c-6.01 3.598-7.974 11.417-4.377 17.43l8.082 13.504a12.625 12.625 0 0 0 7.808 5.798 12.625 12.625 0 0 0 9.62-1.423 12.62 12.62 0 0 0 5.8-7.808 12.626 12.626 0 0 0-1.421-9.622l-5.128-8.566c.228-.034.455-.058.683-.105l15.413-3.185c4.905-1.014 8.552-4.749 9.724-9.299.86.296 1.761.512 2.702.619L78.289 57c.486.055.966.082 1.442.082 6.371 0 11.881-4.797 12.617-11.273a12.624 12.624 0 0 0-2.683-9.348zM36.18 20.099a5.865 5.865 0 0 1 2.954-7.739 5.834 5.834 0 0 1 2.384-.511 5.866 5.866 0 0 1 5.356 3.465L53.3 29.679a5.866 5.866 0 0 1-2.954 7.74 5.864 5.864 0 0 1-7.739-2.954L36.18 20.099zm-2.144 63.616a5.813 5.813 0 0 1-2.674 3.598 5.804 5.804 0 0 1-4.434.655 5.812 5.812 0 0 1-3.598-2.673l-8.082-13.503a5.866 5.866 0 0 1 5.015-8.871 5.88 5.88 0 0 1 3.46 1.128c.139.126.279.251.423.371.441.392.841.832 1.153 1.353l8.084 13.503a5.842 5.842 0 0 1 .653 4.439zM48.84 57.198l-15.413 3.185c-1.686.345-3.342-.088-4.631-1.03-.218-.198-.45-.378-.681-.56a5.82 5.82 0 0 1-1.609-2.962 5.865 5.865 0 0 1 4.551-6.921l15.413-3.184a5.803 5.803 0 0 1 4.404.841 5.82 5.82 0 0 1 2.518 3.709 5.867 5.867 0 0 1-4.552 6.922zm36.702-12.162a5.856 5.856 0 0 1-6.48 5.158l-15.638-1.775a5.864 5.864 0 0 1-5.159-6.481 5.865 5.865 0 0 1 6.481-5.158l15.638 1.775a5.822 5.822 0 0 1 3.922 2.172 5.813 5.813 0 0 1 1.236 4.309z"/></svg>