<svg xmlns="http://www.w3.org/2000/svg" viewBox="0 0 100 100"><path d="M52.244 44.238a8.775 8.775 0 0 0-6.658-1.273l-17.251 3.563c-4.781.988-7.866 5.682-6.88 10.463a8.79 8.79 0 0 0 2.434 4.486l.204.18c.214.166.43.332.63.515l.189.154a8.925 8.925 0 0 0 5.261 1.725c.582 0 1.168-.058 1.746-.177l17.251-3.565a8.792 8.792 0 0 0 5.604-3.809 8.79 8.79 0 0 0 1.276-6.655 8.8 8.8 0 0 0-3.806-5.607zM24.327 66.476c-.437-.731-1.005-1.401-1.801-2.108a10.71 10.71 0 0 1-.394-.346l-.186-.151a8.79 8.79 0 0 0-3.057-1.434 8.88 8.88 0 0 0-6.706.99 8.793 8.793 0 0 0-4.04 5.442 8.807 8.807 0 0 0 .988 6.706l9.046 15.112a8.793 8.793 0 0 0 5.441 4.043 9 9 0 0 0 2.177.27c1.583 0 3.14-.428 4.526-1.262a8.8 8.8 0 0 0 4.044-5.441 8.807 8.807 0 0 0-.991-6.708l-9.047-15.113zM90.2 38.191a8.792 8.792 0 0 0-5.931-3.285l-17.501-1.987c-4.944-.569-9.254 2.991-9.799 7.799-.551 4.853 2.95 9.248 7.801 9.798l17.5 1.987a8.785 8.785 0 0 0 6.515-1.869 8.792 8.792 0 0 0 3.285-5.928 8.793 8.793 0 0 0-1.87-6.515zM48.603 10.237A8.876 8.876 0 0 0 40.509 5a8.79 8.79 0 0 0-3.607.773c-4.457 1.994-6.461 7.244-4.466 11.699l7.194 16.082c1.472 3.285 4.712 5.236 8.099 5.236a8.79 8.79 0 0 0 3.601-.771c4.456-1.994 6.461-7.244 4.466-11.701l-7.193-16.081z"/></svg>