<svg xmlns="http://www.w3.org/2000/svg" xmlns:xlink="http://www.w3.org/1999/xlink" version="1.1" x="0px" y="0px" viewBox="0 0 100 100" enable-background="new 0 0 100 100" xml:space="preserve"><path d="M89.665,36.461c-2.114-2.655-5.135-4.329-8.508-4.713L65.52,29.973c-1.724-0.195-3.407-0.032-4.977,0.426  c-0.157-1.186-0.478-2.369-0.991-3.516l-6.426-14.365c-2.861-6.397-10.395-9.272-16.788-6.41c-6.396,2.861-9.272,10.393-6.41,16.787  l6.428,14.367c0.524,1.172,1.206,2.224,2.008,3.146l-8.693,1.796c-6.484,1.341-10.788,7.431-10.046,13.887  c-2.053,0.102-4.064,0.706-5.879,1.791c-6.01,3.598-7.974,11.417-4.377,17.43l8.082,13.504c1.743,2.912,4.516,4.971,7.808,5.798  C26.293,94.872,27.338,95,28.376,95c2.27,0,4.505-0.613,6.503-1.809c2.913-1.743,4.974-4.516,5.8-7.808  c0.827-3.292,0.322-6.709-1.421-9.622l-5.128-8.566c0.228-0.034,0.455-0.058,0.683-0.105l15.413-3.185  c4.905-1.014,8.552-4.749,9.724-9.299c0.86,0.296,1.761,0.512,2.702,0.619L78.289,57c0.486,0.055,0.966,0.082,1.442,0.082  c6.371,0,11.881-4.797,12.617-11.273C92.731,42.437,91.779,39.117,89.665,36.461z M36.18,20.099  c-1.319-2.948,0.007-6.42,2.954-7.739c0.775-0.346,1.585-0.511,2.384-0.511c2.241,0,4.384,1.292,5.356,3.465L53.3,29.679  c1.319,2.95-0.007,6.421-2.954,7.74c-2.952,1.32-6.418-0.007-7.739-2.954L36.18,20.099z M34.036,83.715  c-0.381,1.517-1.331,2.796-2.674,3.598c-1.34,0.805-2.916,1.037-4.434,0.655c-1.517-0.381-2.796-1.33-3.598-2.673l-8.082-13.503  c-1.659-2.773-0.754-6.378,2.017-8.036c0.92-0.552,1.952-0.835,2.998-0.835c0.479,0,0.96,0.059,1.437,0.179  c0.741,0.186,1.423,0.512,2.023,0.949c0.139,0.126,0.279,0.251,0.423,0.371c0.441,0.392,0.841,0.832,1.153,1.353l8.084,13.503  C34.184,80.622,34.417,82.197,34.036,83.715z M48.84,57.198l-15.413,3.185c-1.686,0.345-3.342-0.088-4.631-1.03  c-0.218-0.198-0.45-0.378-0.681-0.56c-0.789-0.783-1.368-1.795-1.609-2.962c-0.653-3.162,1.389-6.267,4.551-6.921l15.413-3.184  c1.534-0.32,3.095-0.019,4.404,0.841c1.307,0.86,2.201,2.176,2.518,3.709C54.045,53.439,52.002,56.544,48.84,57.198z M85.542,45.036  c-0.363,3.209-3.265,5.526-6.48,5.158l-15.638-1.775c-3.209-0.364-5.523-3.272-5.159-6.481c0.338-2.986,2.879-5.197,5.815-5.197  c0.219,0,0.443,0.013,0.666,0.039l15.638,1.775c1.554,0.177,2.948,0.948,3.922,2.172C85.28,41.951,85.72,43.481,85.542,45.036z"></path></svg>