<svg xmlns="http://www.w3.org/2000/svg" data-name="Layer 1" viewBox="0 0 100 100" x="0px" y="0px"><title>Artboard 25</title><path d="M47.75,77.45,37.11,93.64A9.57,9.57,0,0,1,31,97.74a9.23,9.23,0,0,1-1.8.18,8.84,8.84,0,0,1-5-1.53,9.12,9.12,0,0,1-2.12-13.11l14.65-19A3,3,0,1,1,41.51,68l-14.65,19a3.12,3.12,0,0,0,.74,4.48,3,3,0,0,0,2.25.43,3.54,3.54,0,0,0,2.25-1.51L42.74,74.15a3,3,0,1,1,5,3.29Zm41.81-73c-4-2.87-9.44-3.11-15.23-.66A35.06,35.06,0,0,0,60,15.83c-5.21,7.31-7.64,15.72-6.5,22.5a8.27,8.27,0,0,1-.35,4,3,3,0,0,0,5.68,1.93,14.28,14.28,0,0,0,.59-6.93c-.87-5.17,1.23-12.07,5.47-18a29,29,0,0,1,11.81-10c2.2-.93,6.35-2.16,9.41,0s3.25,6.51,3.09,8.89a29,29,0,0,1-5.63,14.43c-4.24,6-10.09,10.19-15.26,11.05A14.31,14.31,0,0,0,62,46.41a15.56,15.56,0,0,0-1.42,1.23,3,3,0,0,0,4.19,4.29,9.3,9.3,0,0,1,.87-.75,8.27,8.27,0,0,1,3.61-1.59C76,48.46,83.21,43.42,88.42,36.1a35.07,35.07,0,0,0,6.73-17.52C95.57,12.31,93.58,7.28,89.56,4.41ZM46.34,41.24a13.41,13.41,0,0,0-1.44-13L27.06,3.34a3,3,0,0,0-4.88,3.49L40,31.75A7.39,7.39,0,0,1,40.76,39a5.52,5.52,0,0,0,.63,5.62l33,42.68a2.85,2.85,0,1,1-4.63,3.32l-29.9-44.9a5.52,5.52,0,0,0-5.13-2.39,7.38,7.38,0,0,1-6.67-3L10.23,15.41A3,3,0,0,0,5.35,18.9L23.2,43.82a13.42,13.42,0,0,0,11.86,5.53L64.77,94a8.77,8.77,0,0,0,5.78,3.8,9,9,0,0,0,1.62.15,8.85,8.85,0,0,0,7-14.26Zm-13.77-4A3,3,0,0,0,35,32.49L18.73,9.21a3,3,0,0,0-4.92,3.44l16.3,23.28A3,3,0,0,0,32.57,37.21Z"></path></svg>