<svg xmlns="http://www.w3.org/2000/svg" xmlns:xlink="http://www.w3.org/1999/xlink" version="1.1" x="0px" y="0px" viewBox="0 0 90 90" enable-background="new 0 0 90 90" xml:space="preserve"><g><path fill-rule="evenodd" clip-rule="evenodd" d="M61.511,26.15c-0.714-1.738-1.723-3.298-3.026-4.679   c-1.303-1.366-2.809-2.452-4.515-3.259c-1.754-0.822-3.601-1.288-5.54-1.396c-0.28-0.031-0.552-0.047-0.814-0.047   c-0.018,0-0.031,0-0.047,0c-0.327,0.016-0.574,0.023-0.745,0.023c-1.971,0.108-3.841,0.574-5.609,1.397   c-1.708,0.807-3.212,1.893-4.517,3.259c-1.318,1.381-2.327,2.948-3.026,4.702v-0.023c-0.744,1.815-1.118,3.716-1.118,5.702   c-0.015,2.064,0.537,4.182,1.654,6.355c0.574,1.133,1.295,2.25,2.164,3.352c0.482,0.605,1.002,1.21,1.56,1.816   c0.031,0.016,0.055,0.039,0.071,0.07c0.527,0.496,0.892,0.978,1.093,1.443c0.108,0.233,0.179,0.52,0.21,0.862   c0.046,0.371,0.069,0.822,0.069,1.35v1.048c0,0.62,0.117,1.218,0.349,1.792c0.234,0.543,0.56,1.024,0.978,1.443h0.025   c0.418,0.419,0.892,0.745,1.42,0.977h0.023c0.558,0.249,1.148,0.373,1.769,0.373h7.287c0.62,0,1.209-0.124,1.769-0.373   c0.543-0.231,1.023-0.558,1.443-0.977c0.418-0.419,0.743-0.9,0.978-1.443c0.248-0.574,0.371-1.172,0.371-1.792v-1.048   c0-0.527,0.023-0.979,0.071-1.35c0.029-0.342,0.092-0.637,0.186-0.885c0.108-0.233,0.264-0.473,0.466-0.722v-0.023   c0.187-0.233,0.403-0.466,0.651-0.699c0.016-0.016,0.031-0.03,0.047-0.046c0.574-0.605,1.103-1.21,1.583-1.816   c0.868-1.102,1.591-2.219,2.165-3.352c1.117-2.173,1.667-4.291,1.652-6.355C62.605,29.859,62.24,27.966,61.511,26.15z    M81.785,43.142c0,6.875-1.753,13.02-5.261,18.436c-1.381,2.141-3.032,4.167-4.958,6.075c-6.75,6.797-14.913,10.195-24.486,10.195   c-6.457,0-12.292-1.544-17.505-4.632c-0.249,0.295-0.56,0.527-0.932,0.698l-16.131,7.658c-0.512,0.233-1.047,0.303-1.606,0.21   c-0.559-0.094-1.04-0.342-1.443-0.745c-0.404-0.403-0.652-0.886-0.746-1.443c-0.093-0.56-0.023-1.094,0.21-1.605l7.658-16.271   c0.14-0.311,0.334-0.574,0.583-0.792c-3.197-5.261-4.796-11.188-4.796-17.784c0-9.621,3.376-17.807,10.125-24.558   c0.528-0.527,1.071-1.04,1.63-1.536c2.204-1.956,4.539-3.57,7.006-4.842C35.945,9.692,41.26,8.436,47.08,8.436   c9.573,0,17.736,3.382,24.486,10.148c6.426,6.378,9.824,14.029,10.195,22.952C81.778,42.063,81.785,42.599,81.785,43.142z    M51.386,25.266c-0.714-0.326-1.459-0.513-2.235-0.559c-0.48-0.031-0.876-0.225-1.188-0.583c-0.311-0.34-0.457-0.752-0.441-1.233   c0.031-0.466,0.225-0.854,0.582-1.165c0.357-0.31,0.769-0.457,1.234-0.441c1.226,0.077,2.397,0.38,3.515,0.907   c1.069,0.497,2.018,1.179,2.84,2.049c0.807,0.869,1.435,1.854,1.884,2.956c0.466,1.133,0.699,2.32,0.699,3.562   c0,0.465-0.171,0.869-0.512,1.21c-0.325,0.326-0.722,0.489-1.188,0.489c-0.48,0-0.884-0.163-1.21-0.489   c-0.342-0.341-0.513-0.746-0.513-1.21c0-0.792-0.146-1.552-0.441-2.281c-0.279-0.699-0.683-1.327-1.211-1.886   S52.067,25.591,51.386,25.266z M57.787,35.368c0,0.512-0.188,0.954-0.56,1.326c-0.356,0.357-0.8,0.536-1.326,0.536   c-0.512,0-0.946-0.179-1.303-0.536c-0.374-0.372-0.56-0.814-0.56-1.326c0-0.513,0.186-0.956,0.56-1.327   c0.356-0.357,0.791-0.536,1.303-0.536c0.526,0,0.97,0.178,1.326,0.536C57.6,34.413,57.787,34.855,57.787,35.368z M51.897,54.711   H43.4c-0.712,0-1.318,0.256-1.815,0.769c-0.512,0.497-0.769,1.094-0.769,1.792c0,0.714,0.249,1.319,0.746,1.815l0.023,0.024   c0.497,0.496,1.103,0.744,1.815,0.744h8.497c0.715,0,1.318-0.248,1.815-0.744c0.497-0.513,0.745-1.126,0.745-1.84   c0-0.698-0.248-1.295-0.745-1.792v-0.023C53.201,54.959,52.596,54.711,51.897,54.711z M42.726,62.438h-0.023   c-0.497,0.497-0.745,1.103-0.745,1.816s0.257,1.318,0.769,1.815c0.497,0.497,1.102,0.745,1.816,0.745h6.122   c0.697,0,1.295-0.248,1.792-0.745h0.022c0.497-0.497,0.746-1.102,0.746-1.815s-0.249-1.319-0.746-1.816   c-0.512-0.512-1.117-0.768-1.814-0.768h-6.122C43.828,61.671,43.223,61.927,42.726,62.438z"></path></g></svg>