<svg xmlns="http://www.w3.org/2000/svg" xmlns:xlink="http://www.w3.org/1999/xlink" version="1.1" x="0px" y="0px" viewBox="0 0 100 100" enable-background="new 0 0 100 100" xml:space="preserve"><g><path d="M61.896,25.597c0-0.105-0.006-0.21-0.011-0.316c0.005-0.108,0.011-0.211,0.011-0.319c0-0.658-0.125-1.393-0.339-2.176   c-0.202-0.837-0.492-1.64-0.862-2.397C57.683,13.416,50,4.341,50,4.341s-7.683,9.075-10.701,16.048   c-0.368,0.757-0.655,1.561-0.86,2.397c-0.217,0.783-0.336,1.518-0.336,2.176c0,0.108,0.005,0.21,0.005,0.319   c0,0.105-0.005,0.21-0.005,0.316c0,0.658,0.119,1.393,0.336,2.175c0.205,0.837,0.492,1.64,0.86,2.398   C42.317,37.146,50,46.221,50,46.221s7.683-9.075,10.695-16.051c0.37-0.758,0.66-1.561,0.862-2.398   C61.771,26.99,61.896,26.255,61.896,25.597z"></path><g><path d="M72.993,61.401c0.077-0.074,0.146-0.154,0.22-0.228c0.074-0.074,0.153-0.148,0.23-0.223    c0.464-0.461,0.896-1.07,1.301-1.776c0.444-0.735,0.809-1.51,1.082-2.301c2.803-7.068,3.787-18.919,3.787-18.919    s-11.851,0.991-18.915,3.787c-0.795,0.273-1.566,0.638-2.304,1.088c-0.703,0.404-1.31,0.832-1.777,1.298    c-0.073,0.074-0.142,0.154-0.216,0.228c-0.077,0.074-0.157,0.148-0.233,0.222c-0.465,0.461-0.895,1.07-1.299,1.777    c-0.45,0.734-0.812,1.509-1.085,2.301C50.982,55.724,50,67.574,50,67.574s11.846-0.984,18.913-3.787    c0.794-0.273,1.565-0.638,2.301-1.087C71.92,62.301,72.529,61.868,72.993,61.401z"></path><path d="M27.004,61.401c-0.074-0.074-0.148-0.154-0.216-0.228c-0.077-0.074-0.157-0.148-0.234-0.223    c-0.464-0.461-0.894-1.07-1.298-1.776c-0.45-0.735-0.812-1.51-1.085-2.301c-2.799-7.068-3.784-18.919-3.784-18.919    s11.846,0.991,18.913,3.787c0.792,0.273,1.566,0.638,2.301,1.088c0.706,0.404,1.315,0.832,1.777,1.298    c0.08,0.074,0.148,0.154,0.222,0.228c0.074,0.074,0.153,0.148,0.23,0.222c0.464,0.461,0.897,1.07,1.298,1.777    c0.447,0.734,0.812,1.509,1.085,2.301C49.015,55.724,50,67.574,50,67.574s-11.851-0.984-18.916-3.787    c-0.794-0.273-1.566-0.638-2.304-1.087C28.077,62.301,27.471,61.868,27.004,61.401z"></path></g><g><path d="M72.993,89.488c0.077-0.073,0.146-0.153,0.22-0.23c0.074-0.071,0.153-0.143,0.23-0.219    c0.464-0.465,0.896-1.071,1.301-1.774c0.444-0.737,0.809-1.509,1.082-2.304c2.803-7.067,3.787-18.915,3.787-18.915    S67.763,67.03,60.698,69.83c-0.795,0.273-1.566,0.638-2.304,1.085c-0.703,0.404-1.31,0.837-1.777,1.301    c-0.073,0.077-0.142,0.154-0.216,0.23c-0.077,0.074-0.157,0.146-0.233,0.22c-0.465,0.464-0.895,1.07-1.299,1.776    c-0.45,0.735-0.812,1.507-1.085,2.301C50.982,83.811,50,95.659,50,95.659s11.846-0.988,18.913-3.784    c0.794-0.276,1.565-0.638,2.301-1.088C71.92,90.386,72.529,89.953,72.993,89.488z"></path><path d="M27.004,89.488c-0.074-0.073-0.148-0.153-0.216-0.23c-0.077-0.071-0.157-0.143-0.234-0.219    c-0.464-0.465-0.894-1.071-1.298-1.774c-0.45-0.737-0.812-1.509-1.085-2.304c-2.799-7.067-3.784-18.915-3.784-18.915    s11.846,0.984,18.913,3.784c0.792,0.273,1.566,0.638,2.301,1.085c0.706,0.404,1.315,0.837,1.777,1.301    c0.08,0.077,0.148,0.154,0.222,0.23c0.074,0.074,0.153,0.146,0.23,0.22c0.464,0.464,0.897,1.07,1.298,1.776    c0.447,0.735,0.812,1.507,1.085,2.301C49.015,83.811,50,95.659,50,95.659s-11.851-0.988-18.916-3.784    c-0.794-0.276-1.566-0.638-2.304-1.088C28.077,90.386,27.471,89.953,27.004,89.488z"></path></g></g></svg>