<svg xmlns="http://www.w3.org/2000/svg" xmlns:xlink="http://www.w3.org/1999/xlink" version="1.1" x="0px" y="0px" viewBox="0 0 64 64" style="enable-background:new 0 0 64 64;" xml:space="preserve"><g><path d="M15,45.5c-1.654,0-3,1.346-3,3s1.346,3,3,3s3-1.346,3-3S16.654,45.5,15,45.5z M15,49.5c-0.552,0-1-0.448-1-1s0.448-1,1-1   s1,0.448,1,1S15.552,49.5,15,49.5z"></path><path d="M19,34c-2.206,0-4,1.794-4,4s1.794,4,4,4s4-1.794,4-4S21.206,34,19,34z M19,40c-1.103,0-2-0.897-2-2s0.897-2,2-2   s2,0.897,2,2S20.103,40,19,40z"></path><path d="M27,42.5c-1.654,0-3,1.346-3,3s1.346,3,3,3s3-1.346,3-3S28.654,42.5,27,42.5z M27,46.5c-0.552,0-1-0.448-1-1s0.448-1,1-1   s1,0.448,1,1S27.552,46.5,27,46.5z"></path><path d="M15,30c0-1.654-1.346-3-3-3s-3,1.346-3,3s1.346,3,3,3S15,31.654,15,30z M11,30c0-0.552,0.448-1,1-1s1,0.448,1,1   s-0.448,1-1,1S11,30.552,11,30z"></path><path d="M59,50V15c0-0.553-0.447-1-1-1c-3.309,0-6,2.691-6,6v3h-1h-1h-2c0-3.859-3.141-7-7-7h-4v-1.837   c0-2.552-1.825-4.748-4.245-5.107c-1.604-0.235-3.158,0.293-4.258,1.393C27.576,9.533,26.325,9,25,9c-1.327,0-2.578,0.534-3.5,1.45   C20.578,9.534,19.327,9,18,9c-1.339,0-2.601,0.544-3.524,1.476C13.501,9.57,12.12,9,10.75,9c-1.687,0-3.211,0.832-4.529,2.475   C6.078,11.652,6,11.873,6,12.101v38.622l-1.04,1.733c-0.563,0.939-0.578,2.069-0.038,3.022C5.461,56.431,6.438,57,7.532,57h27.936   c1.095,0,2.071-0.569,2.61-1.521c0.54-0.953,0.525-2.083-0.038-3.022L37,50.723V50h4c1.074,0,2.089-0.251,3-0.685V50   c-0.553,0-1,0.447-1,1v4v5h2v-4h13v4h2v-5v-4C60,50.447,59.553,50,59,50z M52,38c0,0.552-0.448,1-1,1h-8c-0.552,0-1-0.448-1-1   s0.448-1,1-1h8C51.552,37,52,37.448,52,38z M37,22h4c0.552,0,1,0.448,1,1v0.184c-1.161,0.414-2,1.514-2,2.816   c0,0.771,0.301,1.468,0.78,2c-0.48,0.532-0.78,1.229-0.78,2s0.301,1.468,0.78,2c-0.48,0.532-0.78,1.229-0.78,2s0.301,1.468,0.78,2   c-0.48,0.532-0.78,1.229-0.78,2c0,1.302,0.839,2.402,2,2.816V43c0,0.552-0.448,1-1,1h-4V22z M52,30c0,0.552-0.448,1-1,1h-8   c-0.552,0-1-0.448-1-1s0.448-1,1-1h8C51.552,29,52,29.448,52,30z M52,34c0,0.552-0.448,1-1,1h-8c-0.552,0-1-0.448-1-1s0.448-1,1-1   h8C51.552,33,52,33.448,52,34z M50,25h1c0.552,0,1,0.448,1,1s-0.448,1-1,1h-8c-0.552,0-1-0.448-1-1s0.448-1,1-1H50z M41,18   c2.757,0,5,2.243,5,5h-2c0-1.654-1.346-3-3-3h-4v-2H41z M8,12.465C8.866,11.479,9.768,11,10.75,11c1.166,0,2.374,0.664,2.872,1.579   c0.35,0.643,1.406,0.643,1.756,0C15.908,11.604,16.913,11,18,11s2.092,0.604,2.622,1.579c0.35,0.643,1.406,0.643,1.756,0   C22.908,11.604,23.913,11,25,11s2.092,0.604,2.622,1.579c0.35,0.643,1.405,0.644,1.757-0.001c0.611-1.125,1.825-1.728,3.082-1.544   C33.908,11.249,35,12.595,35,14.163V17v3h-5c-0.553,0-1,0.447-1,1v13c0,0.827-0.673,1.5-1.5,1.5S26,34.827,26,34V21   c0-0.553-0.447-1-1-1h-4c-0.553,0-1,0.447-1,1v3.5c0,0.827-0.673,1.5-1.5,1.5S17,25.327,17,24.5V21c0-0.553-0.447-1-1-1H8V12.465z    M36.338,54.493C36.251,54.646,35.994,55,35.468,55H7.532c-0.526,0-0.783-0.354-0.87-0.507c-0.086-0.153-0.258-0.557,0.013-1.008   l1.183-1.971C7.951,51.359,8,51.182,8,51V22h7v2.5c0,1.93,1.57,3.5,3.5,3.5s3.5-1.57,3.5-3.5V22h2v12c0,1.93,1.57,3.5,3.5,3.5   S31,35.93,31,34V22h4v23v4v2c0,0.182,0.049,0.359,0.143,0.515l1.183,1.971C36.596,53.937,36.424,54.34,36.338,54.493z M37,48v-2h4   c1.654,0,3-1.346,3-3v-2h2v2c0,2.757-2.243,5-5,5H37z M46,47.889c1.235-1.263,2-2.988,2-4.889v-2h3c1.654,0,3-1.346,3-3   c0-0.771-0.301-1.468-0.78-2c0.48-0.532,0.78-1.229,0.78-2s-0.301-1.468-0.78-2c0.48-0.532,0.78-1.229,0.78-2s-0.301-1.468-0.78-2   c0.48-0.532,0.78-1.229,0.78-2c0-0.462-0.114-0.895-0.301-1.287C53.884,24.532,54,24.28,54,24v-4c0-1.86,1.276-3.429,3-3.873V50H46   V47.889z M45,54v-2h13v2H45z"></path><rect x="31" y="51" width="2" height="2"></rect><rect x="27" y="51" width="2" height="2"></rect><rect x="23" y="51" width="2" height="2"></rect></g></svg>