<svg xmlns="http://www.w3.org/2000/svg" xmlns:xlink="http://www.w3.org/1999/xlink" version="1.1" x="0px" y="0px" viewBox="0 0 100 100" enable-background="new 0 0 100 100" xml:space="preserve"><g><path d="M52.244,44.238c-1.981-1.303-4.343-1.755-6.658-1.273l-17.251,3.563c-4.781,0.988-7.866,5.682-6.88,10.463   c0.35,1.704,1.192,3.255,2.434,4.486l0.204,0.18c0.214,0.166,0.43,0.332,0.63,0.515l0.189,0.154   c1.544,1.129,3.393,1.725,5.261,1.725c0.582,0,1.168-0.058,1.746-0.177l17.251-3.565c2.313-0.478,4.305-1.831,5.604-3.809   c1.301-1.978,1.755-4.342,1.276-6.655C55.571,47.529,54.22,45.538,52.244,44.238z"></path><path d="M24.327,66.476c-0.437-0.731-1.005-1.401-1.801-2.108c-0.135-0.111-0.264-0.228-0.394-0.346l-0.186-0.151   c-0.927-0.675-1.955-1.159-3.057-1.434c-2.259-0.573-4.706-0.211-6.706,0.99c-2.029,1.213-3.463,3.146-4.04,5.442   c-0.576,2.295-0.225,4.677,0.988,6.706l9.046,15.112c1.213,2.03,3.144,3.465,5.441,4.043C24.34,94.91,25.071,95,25.795,95   c1.583,0,3.14-0.428,4.526-1.262c2.03-1.213,3.466-3.146,4.044-5.441c0.575-2.294,0.225-4.676-0.991-6.708L24.327,66.476z"></path><path d="M90.2,38.191c-1.473-1.852-3.578-3.018-5.931-3.285l-17.501-1.987c-4.944-0.569-9.254,2.991-9.799,7.799   c-0.551,4.853,2.95,9.248,7.801,9.798l17.5,1.987c0.343,0.039,0.683,0.058,1.023,0.058c1.99,0,3.909-0.668,5.492-1.927   c1.852-1.473,3.018-3.578,3.285-5.928C92.338,42.357,91.674,40.043,90.2,38.191z"></path><path d="M48.603,10.237C47.179,7.056,44.002,5,40.509,5c-1.247,0-2.461,0.261-3.607,0.773c-4.457,1.994-6.461,7.244-4.466,11.699   l7.194,16.082c1.472,3.285,4.712,5.236,8.099,5.236c1.205,0,2.432-0.247,3.601-0.771c4.456-1.994,6.461-7.244,4.466-11.701   L48.603,10.237z"></path></g></svg>